<mxfile host="Electron" agent="Mozilla/5.0 (Macintosh; Intel Mac OS X 10_15_7) AppleWebKit/537.36 (KHTML, like Gecko) draw.io/26.2.15 Chrome/134.0.6998.205 Electron/35.2.1 Safari/537.36" version="26.2.15" pages="6">
  <diagram name="bronze_layer" id="6bdQotGeXeKKRhWtamzd">
    <mxGraphModel dx="2789" dy="1863" grid="1" gridSize="10" guides="1" tooltips="1" connect="1" arrows="1" fold="1" page="1" pageScale="1" pageWidth="2336" pageHeight="1654" math="0" shadow="0">
      <root>
        <mxCell id="0" />
        <mxCell id="1" parent="0" />
        <mxCell id="9hzKF9WA8CcGwuKkUCpS-1" value="&lt;b&gt;&lt;font style=&quot;font-size: 24px;&quot;&gt;Bronze Layer&lt;/font&gt;&lt;/b&gt;" style="rounded=0;whiteSpace=wrap;html=1;fillColor=#ffe6cc;strokeColor=#d79b00;shadow=1;gradientColor=none;" parent="1" vertex="1">
          <mxGeometry x="1078" y="40" width="180" height="60" as="geometry" />
        </mxCell>
        <mxCell id="9hzKF9WA8CcGwuKkUCpS-2" value="" style="editableCssRules=.*;html=1;shape=image;verticalLabelPosition=bottom;labelBackgroundColor=#ffffff;verticalAlign=top;aspect=fixed;imageAspect=0;image=data:image/svg+xml,PHN2ZyB4bWxucz0iaHR0cDovL3d3dy53My5vcmcvMjAwMC9zdmciIHhtbG5zOnY9Imh0dHBzOi8vdmVjdGEuaW8vbmFubyIgd2lkdGg9IjE0LjY1OTk5OTg0NzQxMjExIiBoZWlnaHQ9IjIwIiB2aWV3Qm94PSIwIDAgMTQuNjU5OTk5ODQ3NDEyMTEgMjAiIHN0eWxlPSJjb2xvci1zY2hlbWU6IGxpZ2h0IGRhcms7Ij4mI3hhOwk8c3R5bGUgdHlwZT0idGV4dC9jc3MiPi5zdDAgeyBmaWxsOiBsaWdodC1kYXJrKHJnYigyNTUsIDE1MywgNTEpLCByZ2IoNjYsIDEzMywgMjQ0KSk7IH0gLnN0MSB7IGZpbGw6IGxpZ2h0LWRhcmsocmdiKDI1NSwgMTUzLCA1MSksIHJnYigxMDIsIDE1NywgMjQ2KSk7IH0gLnN0MiB7IGZpbGw6IGxpZ2h0LWRhcmsocmdiKDI1NSwgMTUzLCA1MSksIHJnYigxNzQsIDIwMywgMjUwKSk7IH0gPC9zdHlsZT4mI3hhOwk8c3R5bGU+JiN4YTsJCS5Ee2ZpbGwtcnVsZTpldmVub2RkfSYjeGE7CTwvc3R5bGU+JiN4YTsJPHBhdGggZD0iTTcuMzMgMTUuMzV2LTMuMDFMMCA4LjQ0djMuMDF6bTAgNC42NXYtMy4wMUwwIDEzLjA5djMuMDF6IiBjbGFzcz0ic3QyIEQiLz4mI3hhOwk8cGF0aCBkPSJNMTQuNjYgOC40NGwtNy4zMyAzLjl2My4wMWw3LjMzLTMuOXptMCA0LjY1bC03LjMzIDMuOVYyMGw3LjMzLTMuOXoiIGNsYXNzPSJzdDEgRCIvPiYjeGE7CTxwYXRoIGQ9Ik03LjMzIDB2My4wMWw3LjMzIDMuOVYzLjl6IiBjbGFzcz0ic3QwIEQiLz4mI3hhOwk8cGF0aCBkPSJNMCA2LjkxbDcuMzMtMy45VjBMMCAzLjl6IiBjbGFzcz0iRCBzdDEiLz4mI3hhOwk8cGF0aCBkPSJNNy4zMyAxMC43OVY3Ljc3TDAgMy44N3YzLjAyeiIgY2xhc3M9IkQgc3QyIi8+JiN4YTsJPHBhdGggZD0iTTE0LjY2IDMuODdsLTcuMzMgMy45djMuMDJsNy4zMy0zLjl6IiBjbGFzcz0iRCBzdDEiLz4mI3hhOzwvc3ZnPg==;" parent="1" vertex="1">
          <mxGeometry x="1030" y="40" width="45" height="60" as="geometry" />
        </mxCell>
        <mxCell id="9hzKF9WA8CcGwuKkUCpS-5" value="&lt;font style=&quot;font-size: 14px;&quot;&gt;&lt;b style=&quot;&quot;&gt;Interview&lt;/b&gt; Source System&lt;/font&gt;&lt;div&gt;&lt;font style=&quot;font-size: 14px;&quot;&gt;Experts&lt;/font&gt;&lt;/div&gt;" style="rounded=1;whiteSpace=wrap;html=1;arcSize=5;shadow=1;" parent="1" vertex="1">
          <mxGeometry x="553" y="200" width="220" height="60" as="geometry" />
        </mxCell>
        <mxCell id="9hzKF9WA8CcGwuKkUCpS-6" value="&lt;b&gt;&lt;font style=&quot;font-size: 15px;&quot;&gt;Analysing&lt;/font&gt;&lt;/b&gt;" style="rounded=0;whiteSpace=wrap;html=1;fillColor=#dae8fc;strokeColor=#6c8ebf;" parent="1" vertex="1">
          <mxGeometry x="583" y="180" width="160" height="30" as="geometry" />
        </mxCell>
        <mxCell id="9hzKF9WA8CcGwuKkUCpS-7" value="&lt;span style=&quot;font-size: 14px;&quot;&gt;Data&lt;b&gt; Ingestion&lt;/b&gt;&lt;/span&gt;" style="rounded=1;whiteSpace=wrap;html=1;arcSize=5;shadow=1;" parent="1" vertex="1">
          <mxGeometry x="892" y="200" width="220" height="60" as="geometry" />
        </mxCell>
        <mxCell id="9hzKF9WA8CcGwuKkUCpS-8" value="&lt;b&gt;&lt;font style=&quot;font-size: 15px;&quot;&gt;Coding&lt;/font&gt;&lt;/b&gt;" style="rounded=0;whiteSpace=wrap;html=1;fillColor=#dae8fc;strokeColor=#6c8ebf;" parent="1" vertex="1">
          <mxGeometry x="922" y="180" width="160" height="30" as="geometry" />
        </mxCell>
        <mxCell id="9hzKF9WA8CcGwuKkUCpS-9" value="" style="html=1;shadow=0;dashed=0;align=center;verticalAlign=middle;shape=mxgraph.arrows2.arrow;dy=0;dx=30;notch=30;fillColor=#000000;" parent="1" vertex="1">
          <mxGeometry x="803" y="205" width="60" height="50" as="geometry" />
        </mxCell>
        <mxCell id="9hzKF9WA8CcGwuKkUCpS-10" value="&lt;span style=&quot;font-size: 14px;&quot;&gt;Data &lt;b&gt;Completeness &amp;amp;&lt;/b&gt;&lt;/span&gt;&lt;div&gt;&lt;span style=&quot;font-size: 14px;&quot;&gt;&lt;b&gt;Schema&lt;/b&gt; Checks&lt;/span&gt;&lt;/div&gt;" style="rounded=1;whiteSpace=wrap;html=1;arcSize=5;shadow=1;" parent="1" vertex="1">
          <mxGeometry x="1223" y="200" width="220" height="60" as="geometry" />
        </mxCell>
        <mxCell id="9hzKF9WA8CcGwuKkUCpS-11" value="&lt;b&gt;&lt;font style=&quot;font-size: 15px;&quot;&gt;Validating&lt;/font&gt;&lt;/b&gt;" style="rounded=0;whiteSpace=wrap;html=1;fillColor=#dae8fc;strokeColor=#6c8ebf;" parent="1" vertex="1">
          <mxGeometry x="1253" y="180" width="160" height="30" as="geometry" />
        </mxCell>
        <mxCell id="9hzKF9WA8CcGwuKkUCpS-12" value="" style="html=1;shadow=0;dashed=0;align=center;verticalAlign=middle;shape=mxgraph.arrows2.arrow;dy=0;dx=30;notch=30;fillColor=#000000;" parent="1" vertex="1">
          <mxGeometry x="1143" y="205" width="60" height="50" as="geometry" />
        </mxCell>
        <mxCell id="9hzKF9WA8CcGwuKkUCpS-13" value="" style="html=1;shadow=0;dashed=0;align=center;verticalAlign=middle;shape=mxgraph.arrows2.arrow;dy=0;dx=30;notch=30;fillColor=#000000;" parent="1" vertex="1">
          <mxGeometry x="1473" y="205" width="60" height="50" as="geometry" />
        </mxCell>
        <mxCell id="9hzKF9WA8CcGwuKkUCpS-14" value="&lt;span style=&quot;font-size: 14px;&quot;&gt;Data &lt;b&gt;Documenting&lt;/b&gt;&lt;/span&gt;&lt;div&gt;&lt;span style=&quot;font-size: 14px;&quot;&gt;Versioning in &lt;b&gt;GIT&lt;/b&gt;&lt;/span&gt;&lt;/div&gt;" style="rounded=1;whiteSpace=wrap;html=1;arcSize=5;shadow=1;" parent="1" vertex="1">
          <mxGeometry x="1563" y="200" width="220" height="60" as="geometry" />
        </mxCell>
        <mxCell id="9hzKF9WA8CcGwuKkUCpS-15" value="&lt;b&gt;&lt;font style=&quot;font-size: 15px;&quot;&gt;Docs &amp;amp; Version&lt;/font&gt;&lt;/b&gt;" style="rounded=0;whiteSpace=wrap;html=1;fillColor=#dae8fc;strokeColor=#6c8ebf;" parent="1" vertex="1">
          <mxGeometry x="1593" y="180" width="160" height="30" as="geometry" />
        </mxCell>
        <mxCell id="9hzKF9WA8CcGwuKkUCpS-16" value="" style="rounded=1;whiteSpace=wrap;html=1;arcSize=5;shadow=1;shadowOpacity=100;shadowOffsetX=4;" parent="1" vertex="1">
          <mxGeometry x="440" y="360" width="400" height="260" as="geometry" />
        </mxCell>
        <mxCell id="9hzKF9WA8CcGwuKkUCpS-17" value="&lt;font style=&quot;font-size: 18px; color: rgb(255, 255, 255);&quot;&gt;&lt;b&gt;Business Context &amp;amp; Ownership&lt;/b&gt;&lt;/font&gt;" style="rounded=0;whiteSpace=wrap;html=1;fillColor=#000000;shadow=1;" parent="1" vertex="1">
          <mxGeometry x="485" y="340" width="310" height="40" as="geometry" />
        </mxCell>
        <mxCell id="9hzKF9WA8CcGwuKkUCpS-19" value="&lt;font style=&quot;font-size: 15px;&quot;&gt;Who &lt;b style=&quot;&quot;&gt;own&lt;/b&gt; the &lt;b style=&quot;&quot;&gt;data&lt;/b&gt; ?&lt;/font&gt;" style="rounded=0;whiteSpace=wrap;html=1;shadow=1;" parent="1" vertex="1">
          <mxGeometry x="450" y="410" width="380" height="40" as="geometry" />
        </mxCell>
        <mxCell id="9hzKF9WA8CcGwuKkUCpS-20" value="&lt;span style=&quot;font-size: 15px;&quot;&gt;What &lt;b&gt;Business Process&lt;/b&gt; it supports ?&lt;/span&gt;" style="rounded=0;whiteSpace=wrap;html=1;shadow=1;" parent="1" vertex="1">
          <mxGeometry x="450" y="460" width="380" height="40" as="geometry" />
        </mxCell>
        <mxCell id="9hzKF9WA8CcGwuKkUCpS-21" value="&lt;span style=&quot;font-size: 15px;&quot;&gt;System &amp;amp; Data &lt;b&gt;documentation&lt;/b&gt;&lt;/span&gt;" style="rounded=0;whiteSpace=wrap;html=1;shadow=1;" parent="1" vertex="1">
          <mxGeometry x="450" y="510" width="380" height="40" as="geometry" />
        </mxCell>
        <mxCell id="9hzKF9WA8CcGwuKkUCpS-22" value="&lt;span style=&quot;font-size: 15px;&quot;&gt;Data &lt;b&gt;Model&lt;/b&gt; &amp;amp; Data &lt;b&gt;Catalog&lt;/b&gt;&lt;/span&gt;" style="rounded=0;whiteSpace=wrap;html=1;shadow=1;" parent="1" vertex="1">
          <mxGeometry x="450" y="560" width="380" height="40" as="geometry" />
        </mxCell>
        <mxCell id="9hzKF9WA8CcGwuKkUCpS-23" value="" style="rounded=1;whiteSpace=wrap;html=1;arcSize=5;shadow=1;shadowOpacity=100;shadowOffsetX=5;" parent="1" vertex="1">
          <mxGeometry x="440" y="700" width="400" height="180" as="geometry" />
        </mxCell>
        <mxCell id="9hzKF9WA8CcGwuKkUCpS-24" value="&lt;font style=&quot;font-size: 18px; color: rgb(255, 255, 255);&quot;&gt;&lt;b&gt;Architecture &amp;amp; Technology Stack&lt;/b&gt;&lt;/font&gt;" style="rounded=0;whiteSpace=wrap;html=1;fillColor=#000000;shadow=1;" parent="1" vertex="1">
          <mxGeometry x="485" y="680" width="310" height="40" as="geometry" />
        </mxCell>
        <mxCell id="9hzKF9WA8CcGwuKkUCpS-25" value="&lt;span style=&quot;font-size: 15px;&quot;&gt;How is data &lt;b&gt;stored&lt;/b&gt; ?&lt;/span&gt;&lt;div&gt;&lt;span style=&quot;font-size: 15px;&quot;&gt;(SQL Server, Oracle, AWS, Azure, ...)&lt;/span&gt;&lt;/div&gt;" style="rounded=0;whiteSpace=wrap;html=1;shadow=1;" parent="1" vertex="1">
          <mxGeometry x="450" y="750" width="380" height="50" as="geometry" />
        </mxCell>
        <mxCell id="9hzKF9WA8CcGwuKkUCpS-29" value="&lt;span style=&quot;font-size: 15px;&quot;&gt;What are the &lt;b&gt;Integration capabilities &lt;/b&gt;?&lt;/span&gt;&lt;div&gt;&lt;span style=&quot;font-size: 15px;&quot;&gt;(API, Kafka, File Extract, Direct DB, ...)&lt;/span&gt;&lt;/div&gt;" style="rounded=0;whiteSpace=wrap;html=1;shadow=1;" parent="1" vertex="1">
          <mxGeometry x="450" y="810" width="380" height="50" as="geometry" />
        </mxCell>
        <mxCell id="9hzKF9WA8CcGwuKkUCpS-30" value="" style="rounded=1;whiteSpace=wrap;html=1;arcSize=5;shadow=1;shadowOpacity=100;shadowOffsetX=5;" parent="1" vertex="1">
          <mxGeometry x="940" y="420" width="400" height="380" as="geometry" />
        </mxCell>
        <mxCell id="9hzKF9WA8CcGwuKkUCpS-31" value="&lt;font style=&quot;font-size: 18px; color: rgb(255, 255, 255);&quot;&gt;&lt;b&gt;Extract &amp;amp; Load&lt;/b&gt;&lt;/font&gt;" style="rounded=0;whiteSpace=wrap;html=1;fillColor=#000000;shadow=1;" parent="1" vertex="1">
          <mxGeometry x="985" y="400" width="310" height="40" as="geometry" />
        </mxCell>
        <mxCell id="9hzKF9WA8CcGwuKkUCpS-32" value="&lt;span style=&quot;font-size: 15px;&quot;&gt;&lt;b&gt;Incremental &lt;/b&gt;vs. &lt;b&gt;Full Loads&lt;/b&gt;&amp;nbsp;?&lt;/span&gt;" style="rounded=0;whiteSpace=wrap;html=1;shadow=1;" parent="1" vertex="1">
          <mxGeometry x="950" y="470" width="380" height="40" as="geometry" />
        </mxCell>
        <mxCell id="9hzKF9WA8CcGwuKkUCpS-33" value="&lt;span style=&quot;font-size: 15px;&quot;&gt;Data &lt;b&gt;Scope &lt;/b&gt;&amp;amp; &lt;b&gt;Historical &lt;/b&gt;Needs&lt;/span&gt;" style="rounded=0;whiteSpace=wrap;html=1;shadow=1;" parent="1" vertex="1">
          <mxGeometry x="950" y="520" width="380" height="40" as="geometry" />
        </mxCell>
        <mxCell id="9hzKF9WA8CcGwuKkUCpS-34" value="&lt;span style=&quot;font-size: 15px;&quot;&gt;What is the expected &lt;b&gt;size &lt;/b&gt;of the &lt;b&gt;extracts &lt;/b&gt;?&lt;/span&gt;" style="rounded=0;whiteSpace=wrap;html=1;shadow=1;" parent="1" vertex="1">
          <mxGeometry x="950" y="570" width="380" height="40" as="geometry" />
        </mxCell>
        <mxCell id="9hzKF9WA8CcGwuKkUCpS-35" value="&lt;span style=&quot;font-size: 15px;&quot;&gt;Are there any data &lt;b&gt;volume limitations &lt;/b&gt;?&lt;/span&gt;" style="rounded=0;whiteSpace=wrap;html=1;shadow=1;" parent="1" vertex="1">
          <mxGeometry x="950" y="620" width="380" height="40" as="geometry" />
        </mxCell>
        <mxCell id="9hzKF9WA8CcGwuKkUCpS-36" value="&lt;span style=&quot;font-size: 15px;&quot;&gt;How to &lt;b&gt;avoid impacting &lt;/b&gt;the source&lt;/span&gt;&lt;div&gt;&lt;span style=&quot;font-size: 15px;&quot;&gt;system&#39;s &lt;b&gt;performance &lt;/b&gt;?&lt;/span&gt;&lt;/div&gt;" style="rounded=0;whiteSpace=wrap;html=1;shadow=1;" parent="1" vertex="1">
          <mxGeometry x="950" y="670" width="380" height="50" as="geometry" />
        </mxCell>
        <mxCell id="9hzKF9WA8CcGwuKkUCpS-37" value="&lt;span style=&quot;font-size: 15px;&quot;&gt;&lt;b&gt;authentication &lt;/b&gt;and &lt;b&gt;authorization&lt;/b&gt;&lt;/span&gt;&lt;div&gt;&lt;span style=&quot;font-size: 15px;&quot;&gt;(tokens, SSH keys, VPN, IP whitelisting, ...)&lt;/span&gt;&lt;/div&gt;" style="rounded=0;whiteSpace=wrap;html=1;shadow=1;" parent="1" vertex="1">
          <mxGeometry x="950" y="730" width="380" height="50" as="geometry" />
        </mxCell>
        <mxCell id="QrKSv-UqAWNYbQrHISNn-1" value="&lt;font style=&quot;font-size: 60px;&quot;&gt;\Rahul-404&lt;/font&gt;" style="rounded=0;whiteSpace=wrap;html=1;align=right;" parent="1" vertex="1">
          <mxGeometry x="1930" y="1510" width="390" height="120" as="geometry" />
        </mxCell>
        <mxCell id="QrKSv-UqAWNYbQrHISNn-2" value="" style="dashed=0;outlineConnect=0;html=1;align=center;labelPosition=center;verticalLabelPosition=bottom;verticalAlign=top;shape=mxgraph.weblogos.github;strokeWidth=1;" parent="1" vertex="1">
          <mxGeometry x="1940" y="1532.5" width="70" height="75" as="geometry" />
        </mxCell>
      </root>
    </mxGraphModel>
  </diagram>
  <diagram id="IVMuuHdhxNE1200n3CgU" name="silver_layer">
    <mxGraphModel dx="2789" dy="1863" grid="1" gridSize="10" guides="1" tooltips="1" connect="1" arrows="1" fold="1" page="1" pageScale="1" pageWidth="2336" pageHeight="1654" math="0" shadow="0">
      <root>
        <mxCell id="0" />
        <mxCell id="1" parent="0" />
        <mxCell id="3xq3wK-VKIbIQIZZ-HUH-1" value="&lt;b&gt;&lt;font style=&quot;font-size: 24px;&quot;&gt;Silver Layer&lt;/font&gt;&lt;/b&gt;" style="rounded=0;whiteSpace=wrap;html=1;fillColor=#f5f5f5;strokeColor=#666666;shadow=1;fontColor=#333333;" parent="1" vertex="1">
          <mxGeometry x="1088" y="64" width="180" height="60" as="geometry" />
        </mxCell>
        <mxCell id="3xq3wK-VKIbIQIZZ-HUH-2" value="" style="editableCssRules=.*;html=1;shape=image;verticalLabelPosition=bottom;labelBackgroundColor=#ffffff;verticalAlign=top;aspect=fixed;imageAspect=0;image=data:image/svg+xml,PHN2ZyB4bWxucz0iaHR0cDovL3d3dy53My5vcmcvMjAwMC9zdmciIHhtbG5zOnY9Imh0dHBzOi8vdmVjdGEuaW8vbmFubyIgd2lkdGg9IjE0LjY1OTk5OTg0NzQxMjExIiBoZWlnaHQ9IjIwIiB2aWV3Qm94PSIwIDAgMTQuNjU5OTk5ODQ3NDEyMTEgMjAiIHN0eWxlPSJjb2xvci1zY2hlbWU6IGxpZ2h0IGRhcms7Ij4mI3hhOwk8c3R5bGUgdHlwZT0idGV4dC9jc3MiPi5zdDAgeyBmaWxsOiBsaWdodC1kYXJrKHJnYigxMjgsIDEyOCwgMTI4KSwgcmdiKDY2LCAxMzMsIDI0NCkpOyB9IC5zdDEgeyBmaWxsOiBsaWdodC1kYXJrKHJnYigxMjgsIDEyOCwgMTI4KSwgcmdiKDY2LCAxMzMsIDI0NCkpOyB9IC5zdDIgeyBmaWxsOiBsaWdodC1kYXJrKHJnYigxMjgsIDEyOCwgMTI4KSwgcmdiKDY2LCAxMzMsIDI0NCkpOyB9IDwvc3R5bGU+JiN4YTsJPHN0eWxlPiYjeGE7CQkuRHtmaWxsLXJ1bGU6ZXZlbm9kZH0mI3hhOwk8L3N0eWxlPiYjeGE7CTxwYXRoIGQ9Ik03LjMzIDE1LjM1di0zLjAxTDAgOC40NHYzLjAxem0wIDQuNjV2LTMuMDFMMCAxMy4wOXYzLjAxeiIgY2xhc3M9InN0MiBEIi8+JiN4YTsJPHBhdGggZD0iTTE0LjY2IDguNDRsLTcuMzMgMy45djMuMDFsNy4zMy0zLjl6bTAgNC42NWwtNy4zMyAzLjlWMjBsNy4zMy0zLjl6IiBjbGFzcz0ic3QxIEQiLz4mI3hhOwk8cGF0aCBkPSJNNy4zMyAwdjMuMDFsNy4zMyAzLjlWMy45eiIgY2xhc3M9InN0MCBEIi8+JiN4YTsJPHBhdGggZD0iTTAgNi45MWw3LjMzLTMuOVYwTDAgMy45eiIgY2xhc3M9IkQgc3QxIi8+JiN4YTsJPHBhdGggZD0iTTcuMzMgMTAuNzlWNy43N0wwIDMuODd2My4wMnoiIGNsYXNzPSJEIHN0MiIvPiYjeGE7CTxwYXRoIGQ9Ik0xNC42NiAzLjg3bC03LjMzIDMuOXYzLjAybDcuMzMtMy45eiIgY2xhc3M9IkQgc3QxIi8+JiN4YTs8L3N2Zz4=;" parent="1" vertex="1">
          <mxGeometry x="1040" y="64" width="45" height="60" as="geometry" />
        </mxCell>
        <mxCell id="3xq3wK-VKIbIQIZZ-HUH-3" value="&lt;span style=&quot;font-size: 14px;&quot;&gt;&lt;b&gt;Explore &lt;/b&gt;&amp;amp;&lt;b&gt; Understand&lt;/b&gt;&lt;/span&gt;&lt;div&gt;&lt;span style=&quot;font-size: 14px;&quot;&gt;the Data&lt;/span&gt;&lt;/div&gt;" style="rounded=1;whiteSpace=wrap;html=1;arcSize=5;shadow=1;shadowOpacity=100;shadowOffsetY=6;shadowOffsetX=6;shadowBlur=0;" parent="1" vertex="1">
          <mxGeometry x="563" y="224" width="220" height="60" as="geometry" />
        </mxCell>
        <mxCell id="3xq3wK-VKIbIQIZZ-HUH-4" value="&lt;b&gt;&lt;font style=&quot;font-size: 15px;&quot;&gt;Analysing&lt;/font&gt;&lt;/b&gt;" style="rounded=0;whiteSpace=wrap;html=1;fillColor=#dae8fc;strokeColor=#6c8ebf;" parent="1" vertex="1">
          <mxGeometry x="593" y="204" width="160" height="30" as="geometry" />
        </mxCell>
        <mxCell id="3xq3wK-VKIbIQIZZ-HUH-5" value="&lt;span style=&quot;font-size: 14px;&quot;&gt;Data&lt;b&gt;&amp;nbsp;Cleansing&lt;/b&gt;&lt;/span&gt;" style="rounded=1;whiteSpace=wrap;html=1;arcSize=5;shadow=1;shadowOpacity=100;shadowOffsetX=6;shadowOffsetY=6;shadowBlur=0;" parent="1" vertex="1">
          <mxGeometry x="902" y="224" width="220" height="60" as="geometry" />
        </mxCell>
        <mxCell id="3xq3wK-VKIbIQIZZ-HUH-6" value="&lt;b&gt;&lt;font style=&quot;font-size: 15px;&quot;&gt;Coding&lt;/font&gt;&lt;/b&gt;" style="rounded=0;whiteSpace=wrap;html=1;fillColor=#dae8fc;strokeColor=#6c8ebf;" parent="1" vertex="1">
          <mxGeometry x="932" y="204" width="160" height="30" as="geometry" />
        </mxCell>
        <mxCell id="3xq3wK-VKIbIQIZZ-HUH-7" value="" style="html=1;shadow=0;dashed=0;align=center;verticalAlign=middle;shape=mxgraph.arrows2.arrow;dy=0;dx=30;notch=30;fillColor=#000000;" parent="1" vertex="1">
          <mxGeometry x="813" y="229" width="60" height="50" as="geometry" />
        </mxCell>
        <mxCell id="3xq3wK-VKIbIQIZZ-HUH-8" value="&lt;span style=&quot;font-size: 14px;&quot;&gt;Data &lt;b&gt;Correctness&lt;/b&gt; Checks&lt;/span&gt;" style="rounded=1;whiteSpace=wrap;html=1;arcSize=5;shadow=1;shadowOpacity=100;shadowOffsetX=6;shadowOffsetY=6;shadowBlur=0;" parent="1" vertex="1">
          <mxGeometry x="1233" y="224" width="220" height="60" as="geometry" />
        </mxCell>
        <mxCell id="3xq3wK-VKIbIQIZZ-HUH-9" value="&lt;b&gt;&lt;font style=&quot;font-size: 15px;&quot;&gt;Validating&lt;/font&gt;&lt;/b&gt;" style="rounded=0;whiteSpace=wrap;html=1;fillColor=#dae8fc;strokeColor=#6c8ebf;" parent="1" vertex="1">
          <mxGeometry x="1263" y="204" width="160" height="30" as="geometry" />
        </mxCell>
        <mxCell id="3xq3wK-VKIbIQIZZ-HUH-10" value="" style="html=1;shadow=0;dashed=0;align=center;verticalAlign=middle;shape=mxgraph.arrows2.arrow;dy=0;dx=30;notch=30;fillColor=#000000;" parent="1" vertex="1">
          <mxGeometry x="1153" y="229" width="60" height="50" as="geometry" />
        </mxCell>
        <mxCell id="3xq3wK-VKIbIQIZZ-HUH-11" value="" style="html=1;shadow=0;dashed=0;align=center;verticalAlign=middle;shape=mxgraph.arrows2.arrow;dy=0;dx=30;notch=30;fillColor=#000000;" parent="1" vertex="1">
          <mxGeometry x="1483" y="229" width="60" height="50" as="geometry" />
        </mxCell>
        <mxCell id="3xq3wK-VKIbIQIZZ-HUH-12" value="&lt;span style=&quot;font-size: 14px;&quot;&gt;Data &lt;b&gt;Documenting&lt;/b&gt;&lt;/span&gt;&lt;div&gt;&lt;span style=&quot;font-size: 14px;&quot;&gt;Versioning in &lt;b&gt;GIT&lt;/b&gt;&lt;/span&gt;&lt;/div&gt;" style="rounded=1;whiteSpace=wrap;html=1;arcSize=5;shadow=1;shadowOpacity=100;shadowOffsetX=6;shadowOffsetY=6;shadowBlur=0;" parent="1" vertex="1">
          <mxGeometry x="1573" y="224" width="220" height="60" as="geometry" />
        </mxCell>
        <mxCell id="3xq3wK-VKIbIQIZZ-HUH-13" value="&lt;b&gt;&lt;font style=&quot;font-size: 15px;&quot;&gt;Docs &amp;amp; Version&lt;/font&gt;&lt;/b&gt;" style="rounded=0;whiteSpace=wrap;html=1;fillColor=#dae8fc;strokeColor=#6c8ebf;" parent="1" vertex="1">
          <mxGeometry x="1603" y="204" width="160" height="30" as="geometry" />
        </mxCell>
        <mxCell id="3xq3wK-VKIbIQIZZ-HUH-14" value="" style="rounded=1;whiteSpace=wrap;html=1;arcSize=5;shadow=1;shadowOpacity=100;shadowOffsetX=4;" parent="1" vertex="1">
          <mxGeometry x="890" y="730" width="400" height="260" as="geometry" />
        </mxCell>
        <mxCell id="3xq3wK-VKIbIQIZZ-HUH-15" value="&lt;font style=&quot;font-size: 18px; color: rgb(255, 255, 255);&quot;&gt;&lt;b&gt;Business Context &amp;amp; Ownership&lt;/b&gt;&lt;/font&gt;" style="rounded=0;whiteSpace=wrap;html=1;fillColor=#000000;shadow=1;" parent="1" vertex="1">
          <mxGeometry x="935" y="710" width="310" height="40" as="geometry" />
        </mxCell>
        <mxCell id="3xq3wK-VKIbIQIZZ-HUH-16" value="&lt;font style=&quot;font-size: 15px;&quot;&gt;Who &lt;b style=&quot;&quot;&gt;own&lt;/b&gt; the &lt;b style=&quot;&quot;&gt;data&lt;/b&gt; ?&lt;/font&gt;" style="rounded=0;whiteSpace=wrap;html=1;shadow=1;" parent="1" vertex="1">
          <mxGeometry x="900" y="780" width="380" height="40" as="geometry" />
        </mxCell>
        <mxCell id="3xq3wK-VKIbIQIZZ-HUH-17" value="&lt;span style=&quot;font-size: 15px;&quot;&gt;What &lt;b&gt;Business Process&lt;/b&gt; it supports ?&lt;/span&gt;" style="rounded=0;whiteSpace=wrap;html=1;shadow=1;" parent="1" vertex="1">
          <mxGeometry x="900" y="830" width="380" height="40" as="geometry" />
        </mxCell>
        <mxCell id="3xq3wK-VKIbIQIZZ-HUH-18" value="&lt;span style=&quot;font-size: 15px;&quot;&gt;System &amp;amp; Data &lt;b&gt;documentation&lt;/b&gt;&lt;/span&gt;" style="rounded=0;whiteSpace=wrap;html=1;shadow=1;" parent="1" vertex="1">
          <mxGeometry x="900" y="880" width="380" height="40" as="geometry" />
        </mxCell>
        <mxCell id="3xq3wK-VKIbIQIZZ-HUH-19" value="&lt;span style=&quot;font-size: 15px;&quot;&gt;Data &lt;b&gt;Model&lt;/b&gt; &amp;amp; Data &lt;b&gt;Catalog&lt;/b&gt;&lt;/span&gt;" style="rounded=0;whiteSpace=wrap;html=1;shadow=1;" parent="1" vertex="1">
          <mxGeometry x="900" y="930" width="380" height="40" as="geometry" />
        </mxCell>
        <mxCell id="3xq3wK-VKIbIQIZZ-HUH-20" value="" style="rounded=1;whiteSpace=wrap;html=1;arcSize=5;shadow=1;shadowOpacity=100;shadowOffsetX=5;" parent="1" vertex="1">
          <mxGeometry x="890" y="1060" width="400" height="180" as="geometry" />
        </mxCell>
        <mxCell id="3xq3wK-VKIbIQIZZ-HUH-21" value="&lt;font style=&quot;font-size: 18px; color: rgb(255, 255, 255);&quot;&gt;&lt;b&gt;Architecture &amp;amp; Technology Stack&lt;/b&gt;&lt;/font&gt;" style="rounded=0;whiteSpace=wrap;html=1;fillColor=#000000;shadow=1;" parent="1" vertex="1">
          <mxGeometry x="935" y="1040" width="310" height="40" as="geometry" />
        </mxCell>
        <mxCell id="3xq3wK-VKIbIQIZZ-HUH-22" value="&lt;span style=&quot;font-size: 15px;&quot;&gt;How is data &lt;b&gt;stored&lt;/b&gt; ?&lt;/span&gt;&lt;div&gt;&lt;span style=&quot;font-size: 15px;&quot;&gt;(SQL Server, Oracle, AWS, Azure, ...)&lt;/span&gt;&lt;/div&gt;" style="rounded=0;whiteSpace=wrap;html=1;shadow=1;" parent="1" vertex="1">
          <mxGeometry x="900" y="1110" width="380" height="50" as="geometry" />
        </mxCell>
        <mxCell id="3xq3wK-VKIbIQIZZ-HUH-23" value="&lt;span style=&quot;font-size: 15px;&quot;&gt;What are the &lt;b&gt;Integration capabilities &lt;/b&gt;?&lt;/span&gt;&lt;div&gt;&lt;span style=&quot;font-size: 15px;&quot;&gt;(API, Kafka, File Extract, Direct DB, ...)&lt;/span&gt;&lt;/div&gt;" style="rounded=0;whiteSpace=wrap;html=1;shadow=1;" parent="1" vertex="1">
          <mxGeometry x="900" y="1170" width="380" height="50" as="geometry" />
        </mxCell>
        <mxCell id="3xq3wK-VKIbIQIZZ-HUH-24" value="" style="rounded=1;whiteSpace=wrap;html=1;arcSize=5;shadow=1;shadowOpacity=100;shadowOffsetX=5;" parent="1" vertex="1">
          <mxGeometry x="1393" y="680" width="400" height="380" as="geometry" />
        </mxCell>
        <mxCell id="3xq3wK-VKIbIQIZZ-HUH-25" value="&lt;font style=&quot;font-size: 18px; color: rgb(255, 255, 255);&quot;&gt;&lt;b&gt;Extract &amp;amp; Load&lt;/b&gt;&lt;/font&gt;" style="rounded=0;whiteSpace=wrap;html=1;fillColor=#000000;shadow=1;" parent="1" vertex="1">
          <mxGeometry x="1438" y="660" width="310" height="40" as="geometry" />
        </mxCell>
        <mxCell id="3xq3wK-VKIbIQIZZ-HUH-26" value="&lt;span style=&quot;font-size: 15px;&quot;&gt;&lt;b&gt;Incremental &lt;/b&gt;vs. &lt;b&gt;Full Loads&lt;/b&gt;&amp;nbsp;?&lt;/span&gt;" style="rounded=0;whiteSpace=wrap;html=1;shadow=1;" parent="1" vertex="1">
          <mxGeometry x="1403" y="730" width="380" height="40" as="geometry" />
        </mxCell>
        <mxCell id="3xq3wK-VKIbIQIZZ-HUH-27" value="&lt;span style=&quot;font-size: 15px;&quot;&gt;Data &lt;b&gt;Scope &lt;/b&gt;&amp;amp; &lt;b&gt;Historical &lt;/b&gt;Needs&lt;/span&gt;" style="rounded=0;whiteSpace=wrap;html=1;shadow=1;" parent="1" vertex="1">
          <mxGeometry x="1403" y="780" width="380" height="40" as="geometry" />
        </mxCell>
        <mxCell id="3xq3wK-VKIbIQIZZ-HUH-28" value="&lt;span style=&quot;font-size: 15px;&quot;&gt;What is the expected &lt;b&gt;size &lt;/b&gt;of the &lt;b&gt;extracts &lt;/b&gt;?&lt;/span&gt;" style="rounded=0;whiteSpace=wrap;html=1;shadow=1;" parent="1" vertex="1">
          <mxGeometry x="1403" y="830" width="380" height="40" as="geometry" />
        </mxCell>
        <mxCell id="3xq3wK-VKIbIQIZZ-HUH-29" value="&lt;span style=&quot;font-size: 15px;&quot;&gt;Are there any data &lt;b&gt;volume limitations &lt;/b&gt;?&lt;/span&gt;" style="rounded=0;whiteSpace=wrap;html=1;shadow=1;" parent="1" vertex="1">
          <mxGeometry x="1403" y="880" width="380" height="40" as="geometry" />
        </mxCell>
        <mxCell id="3xq3wK-VKIbIQIZZ-HUH-30" value="&lt;span style=&quot;font-size: 15px;&quot;&gt;How to &lt;b&gt;avoid impacting &lt;/b&gt;the source&lt;/span&gt;&lt;div&gt;&lt;span style=&quot;font-size: 15px;&quot;&gt;system&#39;s &lt;b&gt;performance &lt;/b&gt;?&lt;/span&gt;&lt;/div&gt;" style="rounded=0;whiteSpace=wrap;html=1;shadow=1;" parent="1" vertex="1">
          <mxGeometry x="1403" y="930" width="380" height="50" as="geometry" />
        </mxCell>
        <mxCell id="3xq3wK-VKIbIQIZZ-HUH-31" value="&lt;span style=&quot;font-size: 15px;&quot;&gt;&lt;b&gt;authentication &lt;/b&gt;and &lt;b&gt;authorization&lt;/b&gt;&lt;/span&gt;&lt;div&gt;&lt;span style=&quot;font-size: 15px;&quot;&gt;(tokens, SSH keys, VPN, IP whitelisting, ...)&lt;/span&gt;&lt;/div&gt;" style="rounded=0;whiteSpace=wrap;html=1;shadow=1;" parent="1" vertex="1">
          <mxGeometry x="1403" y="990" width="380" height="50" as="geometry" />
        </mxCell>
        <mxCell id="3xq3wK-VKIbIQIZZ-HUH-32" value="&lt;font style=&quot;font-size: 60px;&quot;&gt;\Rahul-404&lt;/font&gt;" style="rounded=0;whiteSpace=wrap;html=1;align=right;" parent="1" vertex="1">
          <mxGeometry x="1940" y="1534" width="390" height="120" as="geometry" />
        </mxCell>
        <mxCell id="3xq3wK-VKIbIQIZZ-HUH-33" value="" style="dashed=0;outlineConnect=0;html=1;align=center;labelPosition=center;verticalLabelPosition=bottom;verticalAlign=top;shape=mxgraph.weblogos.github;strokeWidth=1;" parent="1" vertex="1">
          <mxGeometry x="1950" y="1556.5" width="70" height="75" as="geometry" />
        </mxCell>
        <mxCell id="3xq3wK-VKIbIQIZZ-HUH-34" value="&lt;b&gt;Check Quality&lt;/b&gt;&lt;div&gt;Of &lt;b&gt;Bronze&lt;/b&gt;&lt;/div&gt;" style="rounded=0;whiteSpace=wrap;html=1;fillColor=#d5e8d4;strokeColor=#82b366;" parent="1" vertex="1">
          <mxGeometry x="779" y="360" width="140" height="40" as="geometry" />
        </mxCell>
        <mxCell id="3xq3wK-VKIbIQIZZ-HUH-35" value="Write&lt;b&gt; Data&lt;/b&gt;&lt;div&gt;&lt;b&gt;Transformation&lt;/b&gt;&lt;/div&gt;" style="rounded=0;whiteSpace=wrap;html=1;fillColor=#d5e8d4;strokeColor=#82b366;" parent="1" vertex="1">
          <mxGeometry x="952" y="360" width="140" height="40" as="geometry" />
        </mxCell>
        <mxCell id="3xq3wK-VKIbIQIZZ-HUH-36" value="&lt;b&gt;Insert &lt;/b&gt;into&lt;div&gt;&lt;b&gt;Silver&lt;/b&gt;&lt;/div&gt;" style="rounded=0;whiteSpace=wrap;html=1;fillColor=#d5e8d4;strokeColor=#82b366;" parent="1" vertex="1">
          <mxGeometry x="1125" y="360" width="140" height="40" as="geometry" />
        </mxCell>
        <mxCell id="3xq3wK-VKIbIQIZZ-HUH-37" value="" style="html=1;shadow=0;dashed=0;align=center;verticalAlign=middle;shape=mxgraph.arrows2.arrow;dy=0;dx=13;notch=12.52;fillColor=#000000;" parent="1" vertex="1">
          <mxGeometry x="921" y="365" width="30" height="30" as="geometry" />
        </mxCell>
        <mxCell id="3xq3wK-VKIbIQIZZ-HUH-38" value="" style="html=1;shadow=0;dashed=0;align=center;verticalAlign=middle;shape=mxgraph.arrows2.arrow;dy=0;dx=13;notch=12.52;fillColor=#000000;" parent="1" vertex="1">
          <mxGeometry x="1094" y="365" width="30" height="30" as="geometry" />
        </mxCell>
        <mxCell id="3xq3wK-VKIbIQIZZ-HUH-40" value="" style="endArrow=none;html=1;rounded=0;exitX=0;exitY=0;exitDx=0;exitDy=0;entryX=0;entryY=1;entryDx=0;entryDy=0;dashed=1;" parent="1" source="3xq3wK-VKIbIQIZZ-HUH-34" target="3xq3wK-VKIbIQIZZ-HUH-5" edge="1">
          <mxGeometry width="50" height="50" relative="1" as="geometry">
            <mxPoint x="1060" y="400" as="sourcePoint" />
            <mxPoint x="1110" y="350" as="targetPoint" />
          </mxGeometry>
        </mxCell>
        <mxCell id="3xq3wK-VKIbIQIZZ-HUH-41" value="" style="endArrow=none;html=1;rounded=0;exitX=1;exitY=0;exitDx=0;exitDy=0;entryX=1;entryY=1;entryDx=0;entryDy=0;dashed=1;" parent="1" source="3xq3wK-VKIbIQIZZ-HUH-36" target="3xq3wK-VKIbIQIZZ-HUH-5" edge="1">
          <mxGeometry width="50" height="50" relative="1" as="geometry">
            <mxPoint x="940" y="366" as="sourcePoint" />
            <mxPoint x="1063" y="290" as="targetPoint" />
          </mxGeometry>
        </mxCell>
        <mxCell id="3xq3wK-VKIbIQIZZ-HUH-43" style="edgeStyle=orthogonalEdgeStyle;rounded=0;orthogonalLoop=1;jettySize=auto;html=1;entryX=0.5;entryY=0;entryDx=0;entryDy=0;curved=1;dashed=1;strokeColor=#808080;" parent="1" source="3xq3wK-VKIbIQIZZ-HUH-42" target="3xq3wK-VKIbIQIZZ-HUH-13" edge="1">
          <mxGeometry relative="1" as="geometry">
            <Array as="points">
              <mxPoint x="1630" y="135" />
              <mxPoint x="1630" y="182" />
              <mxPoint x="1683" y="182" />
            </Array>
          </mxGeometry>
        </mxCell>
        <mxCell id="3xq3wK-VKIbIQIZZ-HUH-42" value="&lt;font face=&quot;Comic Sans MS&quot; style=&quot;font-size: 15px;&quot;&gt;Data Flow&lt;/font&gt;&lt;div&gt;&lt;font face=&quot;Comic Sans MS&quot; style=&quot;font-size: 15px;&quot;&gt;Data Integration&lt;/font&gt;&lt;/div&gt;" style="text;html=1;align=left;verticalAlign=middle;whiteSpace=wrap;rounded=0;" parent="1" vertex="1">
          <mxGeometry x="1673" y="110" width="137" height="50" as="geometry" />
        </mxCell>
      </root>
    </mxGraphModel>
  </diagram>
  <diagram id="LUP_JMnlsMSMWevKRAmz" name="gold_layer">
    <mxGraphModel dx="2169" dy="1449" grid="1" gridSize="10" guides="1" tooltips="1" connect="1" arrows="1" fold="1" page="1" pageScale="1" pageWidth="2336" pageHeight="1654" math="0" shadow="0">
      <root>
        <mxCell id="0" />
        <mxCell id="1" parent="0" />
        <mxCell id="a8VaLkwzNhfZS4QtDb7y-1" value="&lt;b&gt;&lt;font style=&quot;font-size: 24px;&quot;&gt;Gold Layer&lt;/font&gt;&lt;/b&gt;" style="rounded=0;whiteSpace=wrap;html=1;fillColor=light-dark(#FFC70F,#4285F4);strokeColor=#d6b656;shadow=1;shadowOpacity=100;shadowOffsetX=6;shadowOffsetY=6;shadowBlur=0;" parent="1" vertex="1">
          <mxGeometry x="1088" y="63" width="180" height="60" as="geometry" />
        </mxCell>
        <mxCell id="a8VaLkwzNhfZS4QtDb7y-2" value="" style="editableCssRules=.*;html=1;shape=image;verticalLabelPosition=bottom;labelBackgroundColor=#ffffff;verticalAlign=top;aspect=fixed;imageAspect=0;image=data:image/svg+xml,PHN2ZyB4bWxucz0iaHR0cDovL3d3dy53My5vcmcvMjAwMC9zdmciIHhtbG5zOnY9Imh0dHBzOi8vdmVjdGEuaW8vbmFubyIgd2lkdGg9IjE0LjY1OTk5OTg0NzQxMjExIiBoZWlnaHQ9IjIwIiB2aWV3Qm94PSIwIDAgMTQuNjU5OTk5ODQ3NDEyMTEgMjAiIHN0eWxlPSJjb2xvci1zY2hlbWU6IGxpZ2h0IGRhcms7Ij4mI3hhOwk8c3R5bGUgdHlwZT0idGV4dC9jc3MiPi5zdDAgeyBmaWxsOiBsaWdodC1kYXJrKHJnYigyNTUsIDE5OSwgMTUpLCByZ2IoNjYsIDEzMywgMjQ0KSk7IH0gLnN0MSB7IGZpbGw6IGxpZ2h0LWRhcmsocmdiKDI1NSwgMTk5LCAxNSksIHJnYig2NiwgMTMzLCAyNDQpKTsgfSAuc3QyIHsgZmlsbDogbGlnaHQtZGFyayhyZ2IoMjU1LCAxOTksIDE1KSwgcmdiKDY2LCAxMzMsIDI0NCkpOyB9IDwvc3R5bGU+JiN4YTsJPHN0eWxlPiYjeGE7CQkuRHtmaWxsLXJ1bGU6ZXZlbm9kZH0mI3hhOwk8L3N0eWxlPiYjeGE7CTxwYXRoIGQ9Ik03LjMzIDE1LjM1di0zLjAxTDAgOC40NHYzLjAxem0wIDQuNjV2LTMuMDFMMCAxMy4wOXYzLjAxeiIgY2xhc3M9InN0MiBEIi8+JiN4YTsJPHBhdGggZD0iTTE0LjY2IDguNDRsLTcuMzMgMy45djMuMDFsNy4zMy0zLjl6bTAgNC42NWwtNy4zMyAzLjlWMjBsNy4zMy0zLjl6IiBjbGFzcz0ic3QxIEQiLz4mI3hhOwk8cGF0aCBkPSJNNy4zMyAwdjMuMDFsNy4zMyAzLjlWMy45eiIgY2xhc3M9InN0MCBEIi8+JiN4YTsJPHBhdGggZD0iTTAgNi45MWw3LjMzLTMuOVYwTDAgMy45eiIgY2xhc3M9IkQgc3QxIi8+JiN4YTsJPHBhdGggZD0iTTcuMzMgMTAuNzlWNy43N0wwIDMuODd2My4wMnoiIGNsYXNzPSJEIHN0MiIvPiYjeGE7CTxwYXRoIGQ9Ik0xNC42NiAzLjg3bC03LjMzIDMuOXYzLjAybDcuMzMtMy45eiIgY2xhc3M9IkQgc3QxIi8+JiN4YTs8L3N2Zz4=;" parent="1" vertex="1">
          <mxGeometry x="1040" y="63" width="45" height="60" as="geometry" />
        </mxCell>
        <mxCell id="a8VaLkwzNhfZS4QtDb7y-3" value="&lt;span style=&quot;font-size: 14px;&quot;&gt;&lt;b&gt;Explore &lt;/b&gt;&amp;amp;&lt;b&gt; Understand&lt;/b&gt;&lt;/span&gt;&lt;div&gt;&lt;span style=&quot;font-size: 14px;&quot;&gt;the Business Objects&lt;/span&gt;&lt;/div&gt;" style="rounded=1;whiteSpace=wrap;html=1;arcSize=5;shadow=1;shadowOpacity=100;shadowOffsetY=6;shadowOffsetX=6;shadowBlur=0;" parent="1" vertex="1">
          <mxGeometry x="563" y="223" width="220" height="60" as="geometry" />
        </mxCell>
        <mxCell id="a8VaLkwzNhfZS4QtDb7y-4" value="&lt;b&gt;&lt;font style=&quot;font-size: 15px;&quot;&gt;Analysing&lt;/font&gt;&lt;/b&gt;" style="rounded=0;whiteSpace=wrap;html=1;fillColor=#dae8fc;strokeColor=#6c8ebf;" parent="1" vertex="1">
          <mxGeometry x="593" y="203" width="160" height="30" as="geometry" />
        </mxCell>
        <mxCell id="a8VaLkwzNhfZS4QtDb7y-5" value="&lt;span style=&quot;font-size: 14px;&quot;&gt;Data&lt;b&gt;&amp;nbsp;Integration&lt;/b&gt;&lt;/span&gt;" style="rounded=1;whiteSpace=wrap;html=1;arcSize=5;shadow=1;shadowOpacity=100;shadowOffsetX=6;shadowOffsetY=6;shadowBlur=0;" parent="1" vertex="1">
          <mxGeometry x="902" y="223" width="220" height="60" as="geometry" />
        </mxCell>
        <mxCell id="a8VaLkwzNhfZS4QtDb7y-6" value="&lt;b&gt;&lt;font style=&quot;font-size: 15px;&quot;&gt;Coding&lt;/font&gt;&lt;/b&gt;" style="rounded=0;whiteSpace=wrap;html=1;fillColor=#dae8fc;strokeColor=#6c8ebf;" parent="1" vertex="1">
          <mxGeometry x="932" y="203" width="160" height="30" as="geometry" />
        </mxCell>
        <mxCell id="a8VaLkwzNhfZS4QtDb7y-7" value="" style="html=1;shadow=0;dashed=0;align=center;verticalAlign=middle;shape=mxgraph.arrows2.arrow;dy=0;dx=30;notch=30;fillColor=#000000;" parent="1" vertex="1">
          <mxGeometry x="813" y="228" width="60" height="50" as="geometry" />
        </mxCell>
        <mxCell id="a8VaLkwzNhfZS4QtDb7y-8" value="&lt;span style=&quot;font-size: 14px;&quot;&gt;Data &lt;b&gt;Integration&lt;/b&gt;&amp;nbsp;Checks&lt;/span&gt;" style="rounded=1;whiteSpace=wrap;html=1;arcSize=5;shadow=1;shadowOpacity=100;shadowOffsetX=6;shadowOffsetY=6;shadowBlur=0;" parent="1" vertex="1">
          <mxGeometry x="1233" y="223" width="220" height="60" as="geometry" />
        </mxCell>
        <mxCell id="a8VaLkwzNhfZS4QtDb7y-9" value="&lt;b&gt;&lt;font style=&quot;font-size: 15px;&quot;&gt;Validating&lt;/font&gt;&lt;/b&gt;" style="rounded=0;whiteSpace=wrap;html=1;fillColor=#dae8fc;strokeColor=#6c8ebf;" parent="1" vertex="1">
          <mxGeometry x="1263" y="203" width="160" height="30" as="geometry" />
        </mxCell>
        <mxCell id="a8VaLkwzNhfZS4QtDb7y-10" value="" style="html=1;shadow=0;dashed=0;align=center;verticalAlign=middle;shape=mxgraph.arrows2.arrow;dy=0;dx=30;notch=30;fillColor=#000000;" parent="1" vertex="1">
          <mxGeometry x="1153" y="228" width="60" height="50" as="geometry" />
        </mxCell>
        <mxCell id="a8VaLkwzNhfZS4QtDb7y-11" value="" style="html=1;shadow=0;dashed=0;align=center;verticalAlign=middle;shape=mxgraph.arrows2.arrow;dy=0;dx=30;notch=30;fillColor=#000000;" parent="1" vertex="1">
          <mxGeometry x="1483" y="228" width="60" height="50" as="geometry" />
        </mxCell>
        <mxCell id="a8VaLkwzNhfZS4QtDb7y-12" value="&lt;span style=&quot;font-size: 14px;&quot;&gt;Data &lt;b&gt;Documenting&lt;/b&gt;&lt;/span&gt;&lt;div&gt;&lt;span style=&quot;font-size: 14px;&quot;&gt;Versioning in &lt;b&gt;GIT&lt;/b&gt;&lt;/span&gt;&lt;/div&gt;" style="rounded=1;whiteSpace=wrap;html=1;arcSize=5;shadow=1;shadowOpacity=100;shadowOffsetX=6;shadowOffsetY=6;shadowBlur=0;" parent="1" vertex="1">
          <mxGeometry x="1573" y="223" width="220" height="60" as="geometry" />
        </mxCell>
        <mxCell id="a8VaLkwzNhfZS4QtDb7y-13" value="&lt;b&gt;&lt;font style=&quot;font-size: 15px;&quot;&gt;Docs &amp;amp; Version&lt;/font&gt;&lt;/b&gt;" style="rounded=0;whiteSpace=wrap;html=1;fillColor=#dae8fc;strokeColor=#6c8ebf;" parent="1" vertex="1">
          <mxGeometry x="1603" y="203" width="160" height="30" as="geometry" />
        </mxCell>
        <mxCell id="a8VaLkwzNhfZS4QtDb7y-32" value="&lt;font style=&quot;font-size: 60px;&quot;&gt;\Rahul-404&lt;/font&gt;" style="rounded=0;whiteSpace=wrap;html=1;align=right;" parent="1" vertex="1">
          <mxGeometry x="1940" y="1533" width="390" height="120" as="geometry" />
        </mxCell>
        <mxCell id="a8VaLkwzNhfZS4QtDb7y-33" value="" style="dashed=0;outlineConnect=0;html=1;align=center;labelPosition=center;verticalLabelPosition=bottom;verticalAlign=top;shape=mxgraph.weblogos.github;strokeWidth=1;" parent="1" vertex="1">
          <mxGeometry x="1950" y="1555.5" width="70" height="75" as="geometry" />
        </mxCell>
        <mxCell id="a8VaLkwzNhfZS4QtDb7y-34" value="&lt;b&gt;Build&amp;nbsp;&lt;/b&gt;&lt;span style=&quot;background-color: transparent; color: light-dark(rgb(0, 0, 0), rgb(255, 255, 255));&quot;&gt;the&amp;nbsp;&lt;/span&gt;&lt;div&gt;&lt;b&gt;Business Object&lt;/b&gt;&lt;/div&gt;" style="rounded=0;whiteSpace=wrap;html=1;fillColor=#d5e8d4;strokeColor=#82b366;" parent="1" vertex="1">
          <mxGeometry x="779" y="359" width="140" height="40" as="geometry" />
        </mxCell>
        <mxCell id="a8VaLkwzNhfZS4QtDb7y-35" value="&lt;b&gt;Choose&lt;/b&gt;&amp;nbsp;Type&lt;b&gt;&amp;nbsp;&lt;/b&gt;&lt;div&gt;&lt;b style=&quot;background-color: transparent; color: light-dark(rgb(0, 0, 0), rgb(255, 255, 255));&quot;&gt;Dimension &lt;/b&gt;&lt;span style=&quot;background-color: transparent; color: light-dark(rgb(0, 0, 0), rgb(255, 255, 255));&quot;&gt;vs&lt;/span&gt;&lt;b style=&quot;background-color: transparent; color: light-dark(rgb(0, 0, 0), rgb(255, 255, 255));&quot;&gt;&amp;nbsp;&lt;/b&gt;&lt;b style=&quot;background-color: transparent; color: light-dark(rgb(0, 0, 0), rgb(255, 255, 255));&quot;&gt;Fact&lt;/b&gt;&lt;/div&gt;" style="rounded=0;whiteSpace=wrap;html=1;fillColor=#d5e8d4;strokeColor=#82b366;" parent="1" vertex="1">
          <mxGeometry x="952" y="359" width="140" height="40" as="geometry" />
        </mxCell>
        <mxCell id="a8VaLkwzNhfZS4QtDb7y-36" value="&lt;b&gt;Rename&amp;nbsp;&lt;/b&gt;&lt;div&gt;to&amp;nbsp;&lt;b style=&quot;background-color: transparent; color: light-dark(rgb(0, 0, 0), rgb(255, 255, 255));&quot;&gt;friendly &lt;/b&gt;&lt;span style=&quot;background-color: transparent; color: light-dark(rgb(0, 0, 0), rgb(255, 255, 255));&quot;&gt;names&lt;/span&gt;&lt;/div&gt;" style="rounded=0;whiteSpace=wrap;html=1;fillColor=#d5e8d4;strokeColor=#82b366;" parent="1" vertex="1">
          <mxGeometry x="1125" y="359" width="140" height="40" as="geometry" />
        </mxCell>
        <mxCell id="a8VaLkwzNhfZS4QtDb7y-37" value="" style="html=1;shadow=0;dashed=0;align=center;verticalAlign=middle;shape=mxgraph.arrows2.arrow;dy=0;dx=13;notch=12.52;fillColor=#000000;" parent="1" vertex="1">
          <mxGeometry x="921" y="364" width="30" height="30" as="geometry" />
        </mxCell>
        <mxCell id="a8VaLkwzNhfZS4QtDb7y-38" value="" style="html=1;shadow=0;dashed=0;align=center;verticalAlign=middle;shape=mxgraph.arrows2.arrow;dy=0;dx=13;notch=12.52;fillColor=#000000;" parent="1" vertex="1">
          <mxGeometry x="1094" y="364" width="30" height="30" as="geometry" />
        </mxCell>
        <mxCell id="a8VaLkwzNhfZS4QtDb7y-39" value="" style="endArrow=none;html=1;rounded=0;exitX=0;exitY=0;exitDx=0;exitDy=0;entryX=0;entryY=1;entryDx=0;entryDy=0;dashed=1;" parent="1" source="a8VaLkwzNhfZS4QtDb7y-34" target="a8VaLkwzNhfZS4QtDb7y-5" edge="1">
          <mxGeometry width="50" height="50" relative="1" as="geometry">
            <mxPoint x="1060" y="399" as="sourcePoint" />
            <mxPoint x="1110" y="349" as="targetPoint" />
          </mxGeometry>
        </mxCell>
        <mxCell id="a8VaLkwzNhfZS4QtDb7y-40" value="" style="endArrow=none;html=1;rounded=0;exitX=1;exitY=0;exitDx=0;exitDy=0;entryX=1;entryY=1;entryDx=0;entryDy=0;dashed=1;" parent="1" source="a8VaLkwzNhfZS4QtDb7y-36" target="a8VaLkwzNhfZS4QtDb7y-5" edge="1">
          <mxGeometry width="50" height="50" relative="1" as="geometry">
            <mxPoint x="940" y="365" as="sourcePoint" />
            <mxPoint x="1063" y="289" as="targetPoint" />
          </mxGeometry>
        </mxCell>
        <mxCell id="a8VaLkwzNhfZS4QtDb7y-41" style="edgeStyle=orthogonalEdgeStyle;rounded=0;orthogonalLoop=1;jettySize=auto;html=1;entryX=0.5;entryY=0;entryDx=0;entryDy=0;curved=1;dashed=1;strokeColor=#808080;" parent="1" source="a8VaLkwzNhfZS4QtDb7y-42" target="a8VaLkwzNhfZS4QtDb7y-13" edge="1">
          <mxGeometry relative="1" as="geometry">
            <Array as="points">
              <mxPoint x="1630" y="134" />
              <mxPoint x="1630" y="181" />
              <mxPoint x="1683" y="181" />
            </Array>
          </mxGeometry>
        </mxCell>
        <mxCell id="a8VaLkwzNhfZS4QtDb7y-42" value="&lt;font face=&quot;Comic Sans MS&quot; style=&quot;font-size: 15px;&quot;&gt;Data Model&lt;/font&gt;&lt;div&gt;&lt;font face=&quot;Comic Sans MS&quot;&gt;&lt;span style=&quot;font-size: 15px;&quot;&gt;Data Catalog&lt;br&gt;&lt;/span&gt;&lt;/font&gt;&lt;div&gt;&lt;font face=&quot;Comic Sans MS&quot; style=&quot;font-size: 15px;&quot;&gt;Data Flow&lt;/font&gt;&lt;/div&gt;&lt;/div&gt;" style="text;html=1;align=left;verticalAlign=middle;whiteSpace=wrap;rounded=0;" parent="1" vertex="1">
          <mxGeometry x="1673" y="109" width="137" height="61" as="geometry" />
        </mxCell>
      </root>
    </mxGraphModel>
  </diagram>
  <diagram id="dLQ2c7Kyqh1yZTMjzIVJ" name="data_layer_2">
    <mxGraphModel dx="976" dy="652" grid="0" gridSize="10" guides="1" tooltips="1" connect="1" arrows="0" fold="1" page="1" pageScale="1" pageWidth="2336" pageHeight="1654" math="0" shadow="0">
      <root>
        <mxCell id="0" />
        <mxCell id="1" parent="0" />
        <mxCell id="ctaEgFKPq3O2KdgGqesy-1" value="" style="rounded=0;whiteSpace=wrap;html=1;fillStyle=dots;fillColor=#f5f5f5;fontColor=#333333;strokeColor=#666666;strokeWidth=0;gradientColor=none;" parent="1" vertex="1">
          <mxGeometry x="550" y="20" width="1427" height="1430" as="geometry" />
        </mxCell>
        <mxCell id="Eh8HXYTUSWGlC7DJq96h-1" value="&lt;font style=&quot;font-size: 60px;&quot;&gt;\Rahul-404&lt;/font&gt;" style="rounded=0;whiteSpace=wrap;html=1;align=right;" parent="1" vertex="1">
          <mxGeometry x="1583" y="1320" width="390" height="120" as="geometry" />
        </mxCell>
        <mxCell id="Eh8HXYTUSWGlC7DJq96h-2" value="" style="dashed=0;outlineConnect=0;html=1;align=center;labelPosition=center;verticalLabelPosition=bottom;verticalAlign=top;shape=mxgraph.weblogos.github;strokeWidth=1;" parent="1" vertex="1">
          <mxGeometry x="1593" y="1342.5" width="70" height="75" as="geometry" />
        </mxCell>
        <mxCell id="RiBP2ZX7w-ZUsbbvStvv-1" value="&lt;b&gt;&lt;font style=&quot;font-size: 24px;&quot;&gt;Bronze Layer&lt;/font&gt;&lt;/b&gt;" style="rounded=0;whiteSpace=wrap;html=1;fillColor=#ffe6cc;strokeColor=#d79b00;shadow=1;gradientColor=none;" parent="1" vertex="1">
          <mxGeometry x="1171" y="100" width="180" height="60" as="geometry" />
        </mxCell>
        <mxCell id="RiBP2ZX7w-ZUsbbvStvv-2" value="" style="editableCssRules=.*;html=1;shape=image;verticalLabelPosition=bottom;labelBackgroundColor=#ffffff;verticalAlign=top;aspect=fixed;imageAspect=0;image=data:image/svg+xml,PHN2ZyB4bWxucz0iaHR0cDovL3d3dy53My5vcmcvMjAwMC9zdmciIHhtbG5zOnY9Imh0dHBzOi8vdmVjdGEuaW8vbmFubyIgd2lkdGg9IjE0LjY1OTk5OTg0NzQxMjExIiBoZWlnaHQ9IjIwIiB2aWV3Qm94PSIwIDAgMTQuNjU5OTk5ODQ3NDEyMTEgMjAiIHN0eWxlPSJjb2xvci1zY2hlbWU6IGxpZ2h0IGRhcms7Ij4mI3hhOwk8c3R5bGUgdHlwZT0idGV4dC9jc3MiPi5zdDAgeyBmaWxsOiBsaWdodC1kYXJrKHJnYigyNTUsIDE1MywgNTEpLCByZ2IoNjYsIDEzMywgMjQ0KSk7IH0gLnN0MSB7IGZpbGw6IGxpZ2h0LWRhcmsocmdiKDI1NSwgMTUzLCA1MSksIHJnYigxMDIsIDE1NywgMjQ2KSk7IH0gLnN0MiB7IGZpbGw6IGxpZ2h0LWRhcmsocmdiKDI1NSwgMTUzLCA1MSksIHJnYigxNzQsIDIwMywgMjUwKSk7IH0gPC9zdHlsZT4mI3hhOwk8c3R5bGU+JiN4YTsJCS5Ee2ZpbGwtcnVsZTpldmVub2RkfSYjeGE7CTwvc3R5bGU+JiN4YTsJPHBhdGggZD0iTTcuMzMgMTUuMzV2LTMuMDFMMCA4LjQ0djMuMDF6bTAgNC42NXYtMy4wMUwwIDEzLjA5djMuMDF6IiBjbGFzcz0ic3QyIEQiLz4mI3hhOwk8cGF0aCBkPSJNMTQuNjYgOC40NGwtNy4zMyAzLjl2My4wMWw3LjMzLTMuOXptMCA0LjY1bC03LjMzIDMuOVYyMGw3LjMzLTMuOXoiIGNsYXNzPSJzdDEgRCIvPiYjeGE7CTxwYXRoIGQ9Ik03LjMzIDB2My4wMWw3LjMzIDMuOVYzLjl6IiBjbGFzcz0ic3QwIEQiLz4mI3hhOwk8cGF0aCBkPSJNMCA2LjkxbDcuMzMtMy45VjBMMCAzLjl6IiBjbGFzcz0iRCBzdDEiLz4mI3hhOwk8cGF0aCBkPSJNNy4zMyAxMC43OVY3Ljc3TDAgMy44N3YzLjAyeiIgY2xhc3M9IkQgc3QyIi8+JiN4YTsJPHBhdGggZD0iTTE0LjY2IDMuODdsLTcuMzMgMy45djMuMDJsNy4zMy0zLjl6IiBjbGFzcz0iRCBzdDEiLz4mI3hhOzwvc3ZnPg==;" parent="1" vertex="1">
          <mxGeometry x="1123" y="100" width="45" height="60" as="geometry" />
        </mxCell>
        <mxCell id="RiBP2ZX7w-ZUsbbvStvv-3" value="&lt;font style=&quot;font-size: 14px;&quot;&gt;&lt;b style=&quot;&quot;&gt;Interview&lt;/b&gt; Source System&lt;/font&gt;&lt;div&gt;&lt;font style=&quot;font-size: 14px;&quot;&gt;Experts&lt;/font&gt;&lt;/div&gt;" style="rounded=1;whiteSpace=wrap;html=1;arcSize=5;shadow=1;shadowOpacity=100;shadowOffsetX=6;shadowOffsetY=6;shadowBlur=0;" parent="1" vertex="1">
          <mxGeometry x="646" y="260" width="220" height="60" as="geometry" />
        </mxCell>
        <mxCell id="RiBP2ZX7w-ZUsbbvStvv-4" value="&lt;b&gt;&lt;font style=&quot;font-size: 15px;&quot;&gt;Analysing&lt;/font&gt;&lt;/b&gt;" style="rounded=0;whiteSpace=wrap;html=1;fillColor=#dae8fc;strokeColor=#6c8ebf;" parent="1" vertex="1">
          <mxGeometry x="676" y="240" width="160" height="30" as="geometry" />
        </mxCell>
        <mxCell id="RiBP2ZX7w-ZUsbbvStvv-5" value="&lt;span style=&quot;font-size: 14px;&quot;&gt;Data&lt;b&gt; Ingestion&lt;/b&gt;&lt;/span&gt;" style="rounded=1;whiteSpace=wrap;html=1;arcSize=5;shadow=1;shadowOpacity=100;shadowOffsetX=6;shadowOffsetY=6;shadowBlur=0;" parent="1" vertex="1">
          <mxGeometry x="985" y="260" width="220" height="60" as="geometry" />
        </mxCell>
        <mxCell id="RiBP2ZX7w-ZUsbbvStvv-6" value="&lt;b&gt;&lt;font style=&quot;font-size: 15px;&quot;&gt;Coding&lt;/font&gt;&lt;/b&gt;" style="rounded=0;whiteSpace=wrap;html=1;fillColor=#dae8fc;strokeColor=#6c8ebf;" parent="1" vertex="1">
          <mxGeometry x="1015" y="240" width="160" height="30" as="geometry" />
        </mxCell>
        <mxCell id="RiBP2ZX7w-ZUsbbvStvv-7" value="" style="html=1;shadow=0;dashed=0;align=center;verticalAlign=middle;shape=mxgraph.arrows2.arrow;dy=0;dx=30;notch=30;fillColor=#000000;" parent="1" vertex="1">
          <mxGeometry x="896" y="265" width="60" height="50" as="geometry" />
        </mxCell>
        <mxCell id="RiBP2ZX7w-ZUsbbvStvv-8" value="&lt;span style=&quot;font-size: 14px;&quot;&gt;Data &lt;b&gt;Completeness &amp;amp;&lt;/b&gt;&lt;/span&gt;&lt;div&gt;&lt;span style=&quot;font-size: 14px;&quot;&gt;&lt;b&gt;Schema&lt;/b&gt; Checks&lt;/span&gt;&lt;/div&gt;" style="rounded=1;whiteSpace=wrap;html=1;arcSize=5;shadow=1;shadowOpacity=100;shadowOffsetX=6;shadowOffsetY=6;shadowBlur=0;" parent="1" vertex="1">
          <mxGeometry x="1316" y="260" width="220" height="60" as="geometry" />
        </mxCell>
        <mxCell id="RiBP2ZX7w-ZUsbbvStvv-9" value="&lt;b&gt;&lt;font style=&quot;font-size: 15px;&quot;&gt;Validating&lt;/font&gt;&lt;/b&gt;" style="rounded=0;whiteSpace=wrap;html=1;fillColor=#dae8fc;strokeColor=#6c8ebf;" parent="1" vertex="1">
          <mxGeometry x="1346" y="240" width="160" height="30" as="geometry" />
        </mxCell>
        <mxCell id="RiBP2ZX7w-ZUsbbvStvv-10" value="" style="html=1;shadow=0;dashed=0;align=center;verticalAlign=middle;shape=mxgraph.arrows2.arrow;dy=0;dx=30;notch=30;fillColor=#000000;" parent="1" vertex="1">
          <mxGeometry x="1236" y="265" width="60" height="50" as="geometry" />
        </mxCell>
        <mxCell id="RiBP2ZX7w-ZUsbbvStvv-11" value="" style="html=1;shadow=0;dashed=0;align=center;verticalAlign=middle;shape=mxgraph.arrows2.arrow;dy=0;dx=30;notch=30;fillColor=#000000;" parent="1" vertex="1">
          <mxGeometry x="1566" y="265" width="60" height="50" as="geometry" />
        </mxCell>
        <mxCell id="RiBP2ZX7w-ZUsbbvStvv-12" value="&lt;span style=&quot;font-size: 14px;&quot;&gt;Data &lt;b&gt;Documenting&lt;/b&gt;&lt;/span&gt;&lt;div&gt;&lt;span style=&quot;font-size: 14px;&quot;&gt;Versioning in &lt;b&gt;GIT&lt;/b&gt;&lt;/span&gt;&lt;/div&gt;" style="rounded=1;whiteSpace=wrap;html=1;arcSize=5;shadow=1;shadowOpacity=100;shadowOffsetX=6;shadowOffsetY=6;shadowBlur=0;" parent="1" vertex="1">
          <mxGeometry x="1656" y="260" width="220" height="60" as="geometry" />
        </mxCell>
        <mxCell id="RiBP2ZX7w-ZUsbbvStvv-13" value="&lt;b&gt;&lt;font style=&quot;font-size: 15px;&quot;&gt;Docs &amp;amp; Version&lt;/font&gt;&lt;/b&gt;" style="rounded=0;whiteSpace=wrap;html=1;fillColor=#dae8fc;strokeColor=#6c8ebf;" parent="1" vertex="1">
          <mxGeometry x="1686" y="240" width="160" height="30" as="geometry" />
        </mxCell>
        <mxCell id="t5Xdnyb8yuEihDG5bRFA-1" value="&lt;b&gt;&lt;font style=&quot;font-size: 24px;&quot;&gt;Silver Layer&lt;/font&gt;&lt;/b&gt;" style="rounded=0;whiteSpace=wrap;html=1;fillColor=#f5f5f5;strokeColor=#666666;shadow=1;fontColor=#333333;" parent="1" vertex="1">
          <mxGeometry x="1167.5" y="471" width="180" height="60" as="geometry" />
        </mxCell>
        <mxCell id="t5Xdnyb8yuEihDG5bRFA-2" value="" style="editableCssRules=.*;html=1;shape=image;verticalLabelPosition=bottom;labelBackgroundColor=#ffffff;verticalAlign=top;aspect=fixed;imageAspect=0;image=data:image/svg+xml,PHN2ZyB4bWxucz0iaHR0cDovL3d3dy53My5vcmcvMjAwMC9zdmciIHhtbG5zOnY9Imh0dHBzOi8vdmVjdGEuaW8vbmFubyIgd2lkdGg9IjE0LjY1OTk5OTg0NzQxMjExIiBoZWlnaHQ9IjIwIiB2aWV3Qm94PSIwIDAgMTQuNjU5OTk5ODQ3NDEyMTEgMjAiIHN0eWxlPSJjb2xvci1zY2hlbWU6IGxpZ2h0IGRhcms7Ij4mI3hhOwk8c3R5bGUgdHlwZT0idGV4dC9jc3MiPi5zdDAgeyBmaWxsOiBsaWdodC1kYXJrKHJnYigxMjgsIDEyOCwgMTI4KSwgcmdiKDY2LCAxMzMsIDI0NCkpOyB9IC5zdDEgeyBmaWxsOiBsaWdodC1kYXJrKHJnYigxMjgsIDEyOCwgMTI4KSwgcmdiKDY2LCAxMzMsIDI0NCkpOyB9IC5zdDIgeyBmaWxsOiBsaWdodC1kYXJrKHJnYigxMjgsIDEyOCwgMTI4KSwgcmdiKDY2LCAxMzMsIDI0NCkpOyB9IDwvc3R5bGU+JiN4YTsJPHN0eWxlPiYjeGE7CQkuRHtmaWxsLXJ1bGU6ZXZlbm9kZH0mI3hhOwk8L3N0eWxlPiYjeGE7CTxwYXRoIGQ9Ik03LjMzIDE1LjM1di0zLjAxTDAgOC40NHYzLjAxem0wIDQuNjV2LTMuMDFMMCAxMy4wOXYzLjAxeiIgY2xhc3M9InN0MiBEIi8+JiN4YTsJPHBhdGggZD0iTTE0LjY2IDguNDRsLTcuMzMgMy45djMuMDFsNy4zMy0zLjl6bTAgNC42NWwtNy4zMyAzLjlWMjBsNy4zMy0zLjl6IiBjbGFzcz0ic3QxIEQiLz4mI3hhOwk8cGF0aCBkPSJNNy4zMyAwdjMuMDFsNy4zMyAzLjlWMy45eiIgY2xhc3M9InN0MCBEIi8+JiN4YTsJPHBhdGggZD0iTTAgNi45MWw3LjMzLTMuOVYwTDAgMy45eiIgY2xhc3M9IkQgc3QxIi8+JiN4YTsJPHBhdGggZD0iTTcuMzMgMTAuNzlWNy43N0wwIDMuODd2My4wMnoiIGNsYXNzPSJEIHN0MiIvPiYjeGE7CTxwYXRoIGQ9Ik0xNC42NiAzLjg3bC03LjMzIDMuOXYzLjAybDcuMzMtMy45eiIgY2xhc3M9IkQgc3QxIi8+JiN4YTs8L3N2Zz4=;" parent="1" vertex="1">
          <mxGeometry x="1119.5" y="471" width="45" height="60" as="geometry" />
        </mxCell>
        <mxCell id="t5Xdnyb8yuEihDG5bRFA-3" value="&lt;span style=&quot;font-size: 14px;&quot;&gt;&lt;b&gt;Explore &lt;/b&gt;&amp;amp;&lt;b&gt; Understand&lt;/b&gt;&lt;/span&gt;&lt;div&gt;&lt;span style=&quot;font-size: 14px;&quot;&gt;the Data&lt;/span&gt;&lt;/div&gt;" style="rounded=1;whiteSpace=wrap;html=1;arcSize=5;shadow=1;shadowOpacity=100;shadowOffsetY=6;shadowOffsetX=6;shadowBlur=0;" parent="1" vertex="1">
          <mxGeometry x="642.5" y="631" width="220" height="60" as="geometry" />
        </mxCell>
        <mxCell id="t5Xdnyb8yuEihDG5bRFA-4" value="&lt;b&gt;&lt;font style=&quot;font-size: 15px;&quot;&gt;Analysing&lt;/font&gt;&lt;/b&gt;" style="rounded=0;whiteSpace=wrap;html=1;fillColor=#dae8fc;strokeColor=#6c8ebf;" parent="1" vertex="1">
          <mxGeometry x="672.5" y="611" width="160" height="30" as="geometry" />
        </mxCell>
        <mxCell id="t5Xdnyb8yuEihDG5bRFA-5" value="&lt;span style=&quot;font-size: 14px;&quot;&gt;Data&lt;b&gt;&amp;nbsp;Cleansing&lt;/b&gt;&lt;/span&gt;" style="rounded=1;whiteSpace=wrap;html=1;arcSize=5;shadow=1;shadowOpacity=100;shadowOffsetX=6;shadowOffsetY=6;shadowBlur=0;" parent="1" vertex="1">
          <mxGeometry x="981.5" y="631" width="220" height="60" as="geometry" />
        </mxCell>
        <mxCell id="t5Xdnyb8yuEihDG5bRFA-6" value="&lt;b&gt;&lt;font style=&quot;font-size: 15px;&quot;&gt;Coding&lt;/font&gt;&lt;/b&gt;" style="rounded=0;whiteSpace=wrap;html=1;fillColor=#dae8fc;strokeColor=#6c8ebf;" parent="1" vertex="1">
          <mxGeometry x="1011.5" y="611" width="160" height="30" as="geometry" />
        </mxCell>
        <mxCell id="t5Xdnyb8yuEihDG5bRFA-7" value="" style="html=1;shadow=0;dashed=0;align=center;verticalAlign=middle;shape=mxgraph.arrows2.arrow;dy=0;dx=30;notch=30;fillColor=#000000;" parent="1" vertex="1">
          <mxGeometry x="892.5" y="636" width="60" height="50" as="geometry" />
        </mxCell>
        <mxCell id="t5Xdnyb8yuEihDG5bRFA-8" value="&lt;span style=&quot;font-size: 14px;&quot;&gt;Data &lt;b&gt;Correctness&lt;/b&gt; Checks&lt;/span&gt;" style="rounded=1;whiteSpace=wrap;html=1;arcSize=5;shadow=1;shadowOpacity=100;shadowOffsetX=6;shadowOffsetY=6;shadowBlur=0;" parent="1" vertex="1">
          <mxGeometry x="1312.5" y="631" width="220" height="60" as="geometry" />
        </mxCell>
        <mxCell id="t5Xdnyb8yuEihDG5bRFA-9" value="&lt;b&gt;&lt;font style=&quot;font-size: 15px;&quot;&gt;Validating&lt;/font&gt;&lt;/b&gt;" style="rounded=0;whiteSpace=wrap;html=1;fillColor=#dae8fc;strokeColor=#6c8ebf;" parent="1" vertex="1">
          <mxGeometry x="1342.5" y="611" width="160" height="30" as="geometry" />
        </mxCell>
        <mxCell id="t5Xdnyb8yuEihDG5bRFA-10" value="" style="html=1;shadow=0;dashed=0;align=center;verticalAlign=middle;shape=mxgraph.arrows2.arrow;dy=0;dx=30;notch=30;fillColor=#000000;" parent="1" vertex="1">
          <mxGeometry x="1232.5" y="636" width="60" height="50" as="geometry" />
        </mxCell>
        <mxCell id="t5Xdnyb8yuEihDG5bRFA-11" value="" style="html=1;shadow=0;dashed=0;align=center;verticalAlign=middle;shape=mxgraph.arrows2.arrow;dy=0;dx=30;notch=30;fillColor=#000000;" parent="1" vertex="1">
          <mxGeometry x="1562.5" y="636" width="60" height="50" as="geometry" />
        </mxCell>
        <mxCell id="t5Xdnyb8yuEihDG5bRFA-12" value="&lt;span style=&quot;font-size: 14px;&quot;&gt;Data &lt;b&gt;Documenting&lt;/b&gt;&lt;/span&gt;&lt;div&gt;&lt;span style=&quot;font-size: 14px;&quot;&gt;Versioning in &lt;b&gt;GIT&lt;/b&gt;&lt;/span&gt;&lt;/div&gt;" style="rounded=1;whiteSpace=wrap;html=1;arcSize=5;shadow=1;shadowOpacity=100;shadowOffsetX=6;shadowOffsetY=6;shadowBlur=0;" parent="1" vertex="1">
          <mxGeometry x="1652.5" y="631" width="220" height="60" as="geometry" />
        </mxCell>
        <mxCell id="t5Xdnyb8yuEihDG5bRFA-13" value="&lt;b&gt;&lt;font style=&quot;font-size: 15px;&quot;&gt;Docs &amp;amp; Version&lt;/font&gt;&lt;/b&gt;" style="rounded=0;whiteSpace=wrap;html=1;fillColor=#dae8fc;strokeColor=#6c8ebf;" parent="1" vertex="1">
          <mxGeometry x="1682.5" y="611" width="160" height="30" as="geometry" />
        </mxCell>
        <mxCell id="t5Xdnyb8yuEihDG5bRFA-14" value="&lt;b&gt;Check Quality&lt;/b&gt;&lt;div&gt;Of &lt;b&gt;Bronze&lt;/b&gt;&lt;/div&gt;" style="rounded=0;whiteSpace=wrap;html=1;fillColor=#d5e8d4;strokeColor=#82b366;" parent="1" vertex="1">
          <mxGeometry x="858.5" y="767" width="140" height="40" as="geometry" />
        </mxCell>
        <mxCell id="t5Xdnyb8yuEihDG5bRFA-15" value="Write&lt;b&gt; Data&lt;/b&gt;&lt;div&gt;&lt;b&gt;Transformation&lt;/b&gt;&lt;/div&gt;" style="rounded=0;whiteSpace=wrap;html=1;fillColor=#d5e8d4;strokeColor=#82b366;" parent="1" vertex="1">
          <mxGeometry x="1031.5" y="767" width="140" height="40" as="geometry" />
        </mxCell>
        <mxCell id="t5Xdnyb8yuEihDG5bRFA-16" value="&lt;b&gt;Insert &lt;/b&gt;into&lt;div&gt;&lt;b&gt;Silver&lt;/b&gt;&lt;/div&gt;" style="rounded=0;whiteSpace=wrap;html=1;fillColor=#d5e8d4;strokeColor=#82b366;" parent="1" vertex="1">
          <mxGeometry x="1204.5" y="767" width="140" height="40" as="geometry" />
        </mxCell>
        <mxCell id="t5Xdnyb8yuEihDG5bRFA-17" value="" style="html=1;shadow=0;dashed=0;align=center;verticalAlign=middle;shape=mxgraph.arrows2.arrow;dy=0;dx=13;notch=12.52;fillColor=#000000;" parent="1" vertex="1">
          <mxGeometry x="1000.5" y="772" width="30" height="30" as="geometry" />
        </mxCell>
        <mxCell id="t5Xdnyb8yuEihDG5bRFA-18" value="" style="html=1;shadow=0;dashed=0;align=center;verticalAlign=middle;shape=mxgraph.arrows2.arrow;dy=0;dx=13;notch=12.52;fillColor=#000000;" parent="1" vertex="1">
          <mxGeometry x="1173.5" y="772" width="30" height="30" as="geometry" />
        </mxCell>
        <mxCell id="t5Xdnyb8yuEihDG5bRFA-19" value="" style="endArrow=none;html=1;rounded=0;exitX=0;exitY=0;exitDx=0;exitDy=0;entryX=0;entryY=1;entryDx=0;entryDy=0;dashed=1;" parent="1" source="t5Xdnyb8yuEihDG5bRFA-14" target="t5Xdnyb8yuEihDG5bRFA-5" edge="1">
          <mxGeometry width="50" height="50" relative="1" as="geometry">
            <mxPoint x="1139.5" y="807" as="sourcePoint" />
            <mxPoint x="1189.5" y="757" as="targetPoint" />
          </mxGeometry>
        </mxCell>
        <mxCell id="t5Xdnyb8yuEihDG5bRFA-20" value="" style="endArrow=none;html=1;rounded=0;exitX=1;exitY=0;exitDx=0;exitDy=0;entryX=1;entryY=1;entryDx=0;entryDy=0;dashed=1;" parent="1" source="t5Xdnyb8yuEihDG5bRFA-16" target="t5Xdnyb8yuEihDG5bRFA-5" edge="1">
          <mxGeometry width="50" height="50" relative="1" as="geometry">
            <mxPoint x="1019.5" y="773" as="sourcePoint" />
            <mxPoint x="1142.5" y="697" as="targetPoint" />
          </mxGeometry>
        </mxCell>
        <mxCell id="t5Xdnyb8yuEihDG5bRFA-21" style="edgeStyle=orthogonalEdgeStyle;rounded=0;orthogonalLoop=1;jettySize=auto;html=1;entryX=0.5;entryY=0;entryDx=0;entryDy=0;curved=1;dashed=1;strokeColor=#808080;" parent="1" source="t5Xdnyb8yuEihDG5bRFA-22" target="t5Xdnyb8yuEihDG5bRFA-13" edge="1">
          <mxGeometry relative="1" as="geometry">
            <Array as="points">
              <mxPoint x="1709.5" y="542" />
              <mxPoint x="1709.5" y="589" />
              <mxPoint x="1762.5" y="589" />
            </Array>
          </mxGeometry>
        </mxCell>
        <mxCell id="t5Xdnyb8yuEihDG5bRFA-22" value="&lt;font face=&quot;Comic Sans MS&quot; style=&quot;font-size: 15px;&quot;&gt;Data Flow&lt;/font&gt;&lt;div&gt;&lt;font face=&quot;Comic Sans MS&quot; style=&quot;font-size: 15px;&quot;&gt;Data Integration&lt;/font&gt;&lt;/div&gt;" style="text;html=1;align=left;verticalAlign=middle;whiteSpace=wrap;rounded=0;" parent="1" vertex="1">
          <mxGeometry x="1752.5" y="517" width="137" height="50" as="geometry" />
        </mxCell>
        <mxCell id="8KAIbX9TDnPEWOiRIUf8-1" value="&lt;b&gt;&lt;font style=&quot;font-size: 24px;&quot;&gt;Gold Layer&lt;/font&gt;&lt;/b&gt;" style="rounded=0;whiteSpace=wrap;html=1;fillColor=light-dark(#FFC70F,#4285F4);strokeColor=#d6b656;shadow=1;shadowOpacity=25;shadowOffsetX=2;shadowOffsetY=3;shadowBlur=2;" parent="1" vertex="1">
          <mxGeometry x="1159" y="930" width="180" height="60" as="geometry" />
        </mxCell>
        <mxCell id="8KAIbX9TDnPEWOiRIUf8-2" value="" style="editableCssRules=.*;html=1;shape=image;verticalLabelPosition=bottom;labelBackgroundColor=#ffffff;verticalAlign=top;aspect=fixed;imageAspect=0;image=data:image/svg+xml,PHN2ZyB4bWxucz0iaHR0cDovL3d3dy53My5vcmcvMjAwMC9zdmciIHhtbG5zOnY9Imh0dHBzOi8vdmVjdGEuaW8vbmFubyIgd2lkdGg9IjE0LjY1OTk5OTg0NzQxMjExIiBoZWlnaHQ9IjIwIiB2aWV3Qm94PSIwIDAgMTQuNjU5OTk5ODQ3NDEyMTEgMjAiIHN0eWxlPSJjb2xvci1zY2hlbWU6IGxpZ2h0IGRhcms7Ij4mI3hhOwk8c3R5bGUgdHlwZT0idGV4dC9jc3MiPi5zdDAgeyBmaWxsOiBsaWdodC1kYXJrKHJnYigyNTUsIDE5OSwgMTUpLCByZ2IoNjYsIDEzMywgMjQ0KSk7IH0gLnN0MSB7IGZpbGw6IGxpZ2h0LWRhcmsocmdiKDI1NSwgMTk5LCAxNSksIHJnYig2NiwgMTMzLCAyNDQpKTsgfSAuc3QyIHsgZmlsbDogbGlnaHQtZGFyayhyZ2IoMjU1LCAxOTksIDE1KSwgcmdiKDY2LCAxMzMsIDI0NCkpOyB9IDwvc3R5bGU+JiN4YTsJPHN0eWxlPiYjeGE7CQkuRHtmaWxsLXJ1bGU6ZXZlbm9kZH0mI3hhOwk8L3N0eWxlPiYjeGE7CTxwYXRoIGQ9Ik03LjMzIDE1LjM1di0zLjAxTDAgOC40NHYzLjAxem0wIDQuNjV2LTMuMDFMMCAxMy4wOXYzLjAxeiIgY2xhc3M9InN0MiBEIi8+JiN4YTsJPHBhdGggZD0iTTE0LjY2IDguNDRsLTcuMzMgMy45djMuMDFsNy4zMy0zLjl6bTAgNC42NWwtNy4zMyAzLjlWMjBsNy4zMy0zLjl6IiBjbGFzcz0ic3QxIEQiLz4mI3hhOwk8cGF0aCBkPSJNNy4zMyAwdjMuMDFsNy4zMyAzLjlWMy45eiIgY2xhc3M9InN0MCBEIi8+JiN4YTsJPHBhdGggZD0iTTAgNi45MWw3LjMzLTMuOVYwTDAgMy45eiIgY2xhc3M9IkQgc3QxIi8+JiN4YTsJPHBhdGggZD0iTTcuMzMgMTAuNzlWNy43N0wwIDMuODd2My4wMnoiIGNsYXNzPSJEIHN0MiIvPiYjeGE7CTxwYXRoIGQ9Ik0xNC42NiAzLjg3bC03LjMzIDMuOXYzLjAybDcuMzMtMy45eiIgY2xhc3M9IkQgc3QxIi8+JiN4YTs8L3N2Zz4=;" parent="1" vertex="1">
          <mxGeometry x="1111" y="930" width="45" height="60" as="geometry" />
        </mxCell>
        <mxCell id="8KAIbX9TDnPEWOiRIUf8-3" value="&lt;span style=&quot;font-size: 14px;&quot;&gt;&lt;b&gt;Explore &lt;/b&gt;&amp;amp;&lt;b&gt; Understand&lt;/b&gt;&lt;/span&gt;&lt;div&gt;&lt;span style=&quot;font-size: 14px;&quot;&gt;the Business Objects&lt;/span&gt;&lt;/div&gt;" style="rounded=1;whiteSpace=wrap;html=1;arcSize=5;shadow=1;shadowOpacity=100;shadowOffsetY=6;shadowOffsetX=6;shadowBlur=0;" parent="1" vertex="1">
          <mxGeometry x="634" y="1090" width="220" height="60" as="geometry" />
        </mxCell>
        <mxCell id="8KAIbX9TDnPEWOiRIUf8-4" value="&lt;b&gt;&lt;font style=&quot;font-size: 15px;&quot;&gt;Analysing&lt;/font&gt;&lt;/b&gt;" style="rounded=0;whiteSpace=wrap;html=1;fillColor=#dae8fc;strokeColor=#6c8ebf;" parent="1" vertex="1">
          <mxGeometry x="664" y="1070" width="160" height="30" as="geometry" />
        </mxCell>
        <mxCell id="8KAIbX9TDnPEWOiRIUf8-5" value="&lt;span style=&quot;font-size: 14px;&quot;&gt;Data&lt;b&gt;&amp;nbsp;Integration&lt;/b&gt;&lt;/span&gt;" style="rounded=1;whiteSpace=wrap;html=1;arcSize=5;shadow=1;shadowOpacity=100;shadowOffsetX=6;shadowOffsetY=6;shadowBlur=0;" parent="1" vertex="1">
          <mxGeometry x="973" y="1090" width="220" height="60" as="geometry" />
        </mxCell>
        <mxCell id="8KAIbX9TDnPEWOiRIUf8-6" value="&lt;b&gt;&lt;font style=&quot;font-size: 15px;&quot;&gt;Coding&lt;/font&gt;&lt;/b&gt;" style="rounded=0;whiteSpace=wrap;html=1;fillColor=#dae8fc;strokeColor=#6c8ebf;" parent="1" vertex="1">
          <mxGeometry x="1003" y="1070" width="160" height="30" as="geometry" />
        </mxCell>
        <mxCell id="8KAIbX9TDnPEWOiRIUf8-7" value="" style="html=1;shadow=0;dashed=0;align=center;verticalAlign=middle;shape=mxgraph.arrows2.arrow;dy=0;dx=30;notch=30;fillColor=#000000;" parent="1" vertex="1">
          <mxGeometry x="884" y="1095" width="60" height="50" as="geometry" />
        </mxCell>
        <mxCell id="8KAIbX9TDnPEWOiRIUf8-8" value="&lt;span style=&quot;font-size: 14px;&quot;&gt;Data &lt;b&gt;Integration&lt;/b&gt;&amp;nbsp;Checks&lt;/span&gt;" style="rounded=1;whiteSpace=wrap;html=1;arcSize=5;shadow=1;shadowOpacity=100;shadowOffsetX=6;shadowOffsetY=6;shadowBlur=0;" parent="1" vertex="1">
          <mxGeometry x="1304" y="1090" width="220" height="60" as="geometry" />
        </mxCell>
        <mxCell id="8KAIbX9TDnPEWOiRIUf8-9" value="&lt;b&gt;&lt;font style=&quot;font-size: 15px;&quot;&gt;Validating&lt;/font&gt;&lt;/b&gt;" style="rounded=0;whiteSpace=wrap;html=1;fillColor=#dae8fc;strokeColor=#6c8ebf;" parent="1" vertex="1">
          <mxGeometry x="1334" y="1070" width="160" height="30" as="geometry" />
        </mxCell>
        <mxCell id="8KAIbX9TDnPEWOiRIUf8-10" value="" style="html=1;shadow=0;dashed=0;align=center;verticalAlign=middle;shape=mxgraph.arrows2.arrow;dy=0;dx=30;notch=30;fillColor=#000000;" parent="1" vertex="1">
          <mxGeometry x="1224" y="1095" width="60" height="50" as="geometry" />
        </mxCell>
        <mxCell id="8KAIbX9TDnPEWOiRIUf8-11" value="" style="html=1;shadow=0;dashed=0;align=center;verticalAlign=middle;shape=mxgraph.arrows2.arrow;dy=0;dx=30;notch=30;fillColor=#000000;" parent="1" vertex="1">
          <mxGeometry x="1554" y="1095" width="60" height="50" as="geometry" />
        </mxCell>
        <mxCell id="8KAIbX9TDnPEWOiRIUf8-12" value="&lt;span style=&quot;font-size: 14px;&quot;&gt;Data &lt;b&gt;Documenting&lt;/b&gt;&lt;/span&gt;&lt;div&gt;&lt;span style=&quot;font-size: 14px;&quot;&gt;Versioning in &lt;b&gt;GIT&lt;/b&gt;&lt;/span&gt;&lt;/div&gt;" style="rounded=1;whiteSpace=wrap;html=1;arcSize=5;shadow=1;shadowOpacity=100;shadowOffsetX=6;shadowOffsetY=6;shadowBlur=0;" parent="1" vertex="1">
          <mxGeometry x="1644" y="1090" width="220" height="60" as="geometry" />
        </mxCell>
        <mxCell id="8KAIbX9TDnPEWOiRIUf8-13" value="&lt;b&gt;&lt;font style=&quot;font-size: 15px;&quot;&gt;Docs &amp;amp; Version&lt;/font&gt;&lt;/b&gt;" style="rounded=0;whiteSpace=wrap;html=1;fillColor=#dae8fc;strokeColor=#6c8ebf;" parent="1" vertex="1">
          <mxGeometry x="1674" y="1070" width="160" height="30" as="geometry" />
        </mxCell>
        <mxCell id="8KAIbX9TDnPEWOiRIUf8-14" value="&lt;b&gt;Build&amp;nbsp;&lt;/b&gt;&lt;span style=&quot;background-color: transparent; color: light-dark(rgb(0, 0, 0), rgb(255, 255, 255));&quot;&gt;the&amp;nbsp;&lt;/span&gt;&lt;div&gt;&lt;b&gt;Business Object&lt;/b&gt;&lt;/div&gt;" style="rounded=0;whiteSpace=wrap;html=1;fillColor=#d5e8d4;strokeColor=#82b366;" parent="1" vertex="1">
          <mxGeometry x="850" y="1226" width="140" height="40" as="geometry" />
        </mxCell>
        <mxCell id="8KAIbX9TDnPEWOiRIUf8-15" value="&lt;b&gt;Choose&lt;/b&gt;&amp;nbsp;Type&lt;b&gt;&amp;nbsp;&lt;/b&gt;&lt;div&gt;&lt;b style=&quot;background-color: transparent; color: light-dark(rgb(0, 0, 0), rgb(255, 255, 255));&quot;&gt;Dimension &lt;/b&gt;&lt;span style=&quot;background-color: transparent; color: light-dark(rgb(0, 0, 0), rgb(255, 255, 255));&quot;&gt;vs&lt;/span&gt;&lt;b style=&quot;background-color: transparent; color: light-dark(rgb(0, 0, 0), rgb(255, 255, 255));&quot;&gt;&amp;nbsp;&lt;/b&gt;&lt;b style=&quot;background-color: transparent; color: light-dark(rgb(0, 0, 0), rgb(255, 255, 255));&quot;&gt;Fact&lt;/b&gt;&lt;/div&gt;" style="rounded=0;whiteSpace=wrap;html=1;fillColor=#d5e8d4;strokeColor=#82b366;" parent="1" vertex="1">
          <mxGeometry x="1023" y="1226" width="140" height="40" as="geometry" />
        </mxCell>
        <mxCell id="8KAIbX9TDnPEWOiRIUf8-16" value="&lt;b&gt;Rename&amp;nbsp;&lt;/b&gt;&lt;div&gt;to&amp;nbsp;&lt;b style=&quot;background-color: transparent; color: light-dark(rgb(0, 0, 0), rgb(255, 255, 255));&quot;&gt;friendly &lt;/b&gt;&lt;span style=&quot;background-color: transparent; color: light-dark(rgb(0, 0, 0), rgb(255, 255, 255));&quot;&gt;names&lt;/span&gt;&lt;/div&gt;" style="rounded=0;whiteSpace=wrap;html=1;fillColor=#d5e8d4;strokeColor=#82b366;" parent="1" vertex="1">
          <mxGeometry x="1196" y="1226" width="140" height="40" as="geometry" />
        </mxCell>
        <mxCell id="8KAIbX9TDnPEWOiRIUf8-17" value="" style="html=1;shadow=0;dashed=0;align=center;verticalAlign=middle;shape=mxgraph.arrows2.arrow;dy=0;dx=13;notch=12.52;fillColor=#000000;" parent="1" vertex="1">
          <mxGeometry x="992" y="1231" width="30" height="30" as="geometry" />
        </mxCell>
        <mxCell id="8KAIbX9TDnPEWOiRIUf8-18" value="" style="html=1;shadow=0;dashed=0;align=center;verticalAlign=middle;shape=mxgraph.arrows2.arrow;dy=0;dx=13;notch=12.52;fillColor=#000000;" parent="1" vertex="1">
          <mxGeometry x="1165" y="1231" width="30" height="30" as="geometry" />
        </mxCell>
        <mxCell id="8KAIbX9TDnPEWOiRIUf8-19" value="" style="endArrow=none;html=1;rounded=0;exitX=0;exitY=0;exitDx=0;exitDy=0;entryX=0;entryY=1;entryDx=0;entryDy=0;dashed=1;" parent="1" source="8KAIbX9TDnPEWOiRIUf8-14" target="8KAIbX9TDnPEWOiRIUf8-5" edge="1">
          <mxGeometry width="50" height="50" relative="1" as="geometry">
            <mxPoint x="1131" y="1266" as="sourcePoint" />
            <mxPoint x="1181" y="1216" as="targetPoint" />
          </mxGeometry>
        </mxCell>
        <mxCell id="8KAIbX9TDnPEWOiRIUf8-20" value="" style="endArrow=none;html=1;rounded=0;exitX=1;exitY=0;exitDx=0;exitDy=0;entryX=1;entryY=1;entryDx=0;entryDy=0;dashed=1;" parent="1" source="8KAIbX9TDnPEWOiRIUf8-16" target="8KAIbX9TDnPEWOiRIUf8-5" edge="1">
          <mxGeometry width="50" height="50" relative="1" as="geometry">
            <mxPoint x="1011" y="1232" as="sourcePoint" />
            <mxPoint x="1134" y="1156" as="targetPoint" />
          </mxGeometry>
        </mxCell>
        <mxCell id="8KAIbX9TDnPEWOiRIUf8-21" style="edgeStyle=orthogonalEdgeStyle;rounded=0;orthogonalLoop=1;jettySize=auto;html=1;entryX=0.5;entryY=0;entryDx=0;entryDy=0;curved=1;dashed=1;strokeColor=#808080;" parent="1" source="8KAIbX9TDnPEWOiRIUf8-22" target="8KAIbX9TDnPEWOiRIUf8-13" edge="1">
          <mxGeometry relative="1" as="geometry">
            <Array as="points">
              <mxPoint x="1701" y="1001" />
              <mxPoint x="1701" y="1048" />
              <mxPoint x="1754" y="1048" />
            </Array>
          </mxGeometry>
        </mxCell>
        <mxCell id="8KAIbX9TDnPEWOiRIUf8-22" value="&lt;font face=&quot;Comic Sans MS&quot; style=&quot;font-size: 15px;&quot;&gt;Data Model&lt;/font&gt;&lt;div&gt;&lt;font face=&quot;Comic Sans MS&quot;&gt;&lt;span style=&quot;font-size: 15px;&quot;&gt;Data Catalog&lt;br&gt;&lt;/span&gt;&lt;/font&gt;&lt;div&gt;&lt;font face=&quot;Comic Sans MS&quot; style=&quot;font-size: 15px;&quot;&gt;Data Flow&lt;/font&gt;&lt;/div&gt;&lt;/div&gt;" style="text;html=1;align=left;verticalAlign=middle;whiteSpace=wrap;rounded=0;" parent="1" vertex="1">
          <mxGeometry x="1744" y="976" width="137" height="61" as="geometry" />
        </mxCell>
      </root>
    </mxGraphModel>
  </diagram>
  <diagram id="vP44OdwyoUHL_uKS3W8c" name="data_layer_3">
    <mxGraphModel dx="2789" dy="1863" grid="0" gridSize="10" guides="1" tooltips="1" connect="1" arrows="1" fold="1" page="1" pageScale="1" pageWidth="2336" pageHeight="1654" math="0" shadow="0">
      <root>
        <mxCell id="0" />
        <mxCell id="1" parent="0" />
        <mxCell id="vfXTkZvI6k-GlnQmIOGm-1" value="" style="rounded=0;whiteSpace=wrap;html=1;fillColor=#f5f5f5;fontColor=#333333;strokeColor=#666666;fillStyle=dots;" vertex="1" parent="1">
          <mxGeometry x="408" y="167" width="1520" height="1320" as="geometry" />
        </mxCell>
        <mxCell id="vfXTkZvI6k-GlnQmIOGm-2" value="" style="rounded=1;whiteSpace=wrap;html=1;arcSize=5;shadow=1;shadowOpacity=100;shadowOffsetX=4;" vertex="1" parent="1">
          <mxGeometry x="684" y="495" width="400" height="260" as="geometry" />
        </mxCell>
        <mxCell id="vfXTkZvI6k-GlnQmIOGm-3" value="&lt;font style=&quot;font-size: 18px; color: rgb(255, 255, 255);&quot;&gt;&lt;b&gt;Business Context &amp;amp; Ownership&lt;/b&gt;&lt;/font&gt;" style="rounded=0;whiteSpace=wrap;html=1;fillColor=#000000;shadow=1;" vertex="1" parent="1">
          <mxGeometry x="729" y="475" width="310" height="40" as="geometry" />
        </mxCell>
        <mxCell id="vfXTkZvI6k-GlnQmIOGm-4" value="&lt;font style=&quot;font-size: 15px;&quot;&gt;Who &lt;b style=&quot;&quot;&gt;own&lt;/b&gt; the &lt;b style=&quot;&quot;&gt;data&lt;/b&gt; ?&lt;/font&gt;" style="rounded=0;whiteSpace=wrap;html=1;shadow=1;" vertex="1" parent="1">
          <mxGeometry x="694" y="545" width="380" height="40" as="geometry" />
        </mxCell>
        <mxCell id="vfXTkZvI6k-GlnQmIOGm-5" value="&lt;span style=&quot;font-size: 15px;&quot;&gt;What &lt;b&gt;Business Process&lt;/b&gt; it supports ?&lt;/span&gt;" style="rounded=0;whiteSpace=wrap;html=1;shadow=1;" vertex="1" parent="1">
          <mxGeometry x="694" y="595" width="380" height="40" as="geometry" />
        </mxCell>
        <mxCell id="vfXTkZvI6k-GlnQmIOGm-6" value="&lt;span style=&quot;font-size: 15px;&quot;&gt;System &amp;amp; Data &lt;b&gt;documentation&lt;/b&gt;&lt;/span&gt;" style="rounded=0;whiteSpace=wrap;html=1;shadow=1;" vertex="1" parent="1">
          <mxGeometry x="694" y="645" width="380" height="40" as="geometry" />
        </mxCell>
        <mxCell id="vfXTkZvI6k-GlnQmIOGm-7" value="&lt;span style=&quot;font-size: 15px;&quot;&gt;Data &lt;b&gt;Model&lt;/b&gt; &amp;amp; Data &lt;b&gt;Catalog&lt;/b&gt;&lt;/span&gt;" style="rounded=0;whiteSpace=wrap;html=1;shadow=1;" vertex="1" parent="1">
          <mxGeometry x="694" y="695" width="380" height="40" as="geometry" />
        </mxCell>
        <mxCell id="vfXTkZvI6k-GlnQmIOGm-8" value="" style="rounded=1;whiteSpace=wrap;html=1;arcSize=5;shadow=1;shadowOpacity=100;shadowOffsetX=5;" vertex="1" parent="1">
          <mxGeometry x="684" y="835" width="400" height="180" as="geometry" />
        </mxCell>
        <mxCell id="vfXTkZvI6k-GlnQmIOGm-9" value="&lt;font style=&quot;font-size: 18px; color: rgb(255, 255, 255);&quot;&gt;&lt;b&gt;Architecture &amp;amp; Technology Stack&lt;/b&gt;&lt;/font&gt;" style="rounded=0;whiteSpace=wrap;html=1;fillColor=#000000;shadow=1;" vertex="1" parent="1">
          <mxGeometry x="729" y="815" width="310" height="40" as="geometry" />
        </mxCell>
        <mxCell id="vfXTkZvI6k-GlnQmIOGm-10" value="&lt;span style=&quot;font-size: 15px;&quot;&gt;How is data &lt;b&gt;stored&lt;/b&gt; ?&lt;/span&gt;&lt;div&gt;&lt;span style=&quot;font-size: 15px;&quot;&gt;(SQL Server, Oracle, AWS, Azure, ...)&lt;/span&gt;&lt;/div&gt;" style="rounded=0;whiteSpace=wrap;html=1;shadow=1;" vertex="1" parent="1">
          <mxGeometry x="694" y="885" width="380" height="50" as="geometry" />
        </mxCell>
        <mxCell id="vfXTkZvI6k-GlnQmIOGm-11" value="&lt;span style=&quot;font-size: 15px;&quot;&gt;What are the &lt;b&gt;Integration capabilities &lt;/b&gt;?&lt;/span&gt;&lt;div&gt;&lt;span style=&quot;font-size: 15px;&quot;&gt;(API, Kafka, File Extract, Direct DB, ...)&lt;/span&gt;&lt;/div&gt;" style="rounded=0;whiteSpace=wrap;html=1;shadow=1;" vertex="1" parent="1">
          <mxGeometry x="694" y="945" width="380" height="50" as="geometry" />
        </mxCell>
        <mxCell id="vfXTkZvI6k-GlnQmIOGm-12" value="" style="rounded=1;whiteSpace=wrap;html=1;arcSize=5;shadow=1;shadowOpacity=100;shadowOffsetX=5;" vertex="1" parent="1">
          <mxGeometry x="1184" y="555" width="400" height="380" as="geometry" />
        </mxCell>
        <mxCell id="vfXTkZvI6k-GlnQmIOGm-13" value="&lt;font style=&quot;font-size: 18px; color: rgb(255, 255, 255);&quot;&gt;&lt;b&gt;Extract &amp;amp; Load&lt;/b&gt;&lt;/font&gt;" style="rounded=0;whiteSpace=wrap;html=1;fillColor=#000000;shadow=1;" vertex="1" parent="1">
          <mxGeometry x="1229" y="535" width="310" height="40" as="geometry" />
        </mxCell>
        <mxCell id="vfXTkZvI6k-GlnQmIOGm-14" value="&lt;span style=&quot;font-size: 15px;&quot;&gt;&lt;b&gt;Incremental &lt;/b&gt;vs. &lt;b&gt;Full Loads&lt;/b&gt;&amp;nbsp;?&lt;/span&gt;" style="rounded=0;whiteSpace=wrap;html=1;shadow=1;" vertex="1" parent="1">
          <mxGeometry x="1194" y="605" width="380" height="40" as="geometry" />
        </mxCell>
        <mxCell id="vfXTkZvI6k-GlnQmIOGm-15" value="&lt;span style=&quot;font-size: 15px;&quot;&gt;Data &lt;b&gt;Scope &lt;/b&gt;&amp;amp; &lt;b&gt;Historical &lt;/b&gt;Needs&lt;/span&gt;" style="rounded=0;whiteSpace=wrap;html=1;shadow=1;" vertex="1" parent="1">
          <mxGeometry x="1194" y="655" width="380" height="40" as="geometry" />
        </mxCell>
        <mxCell id="vfXTkZvI6k-GlnQmIOGm-16" value="&lt;span style=&quot;font-size: 15px;&quot;&gt;What is the expected &lt;b&gt;size &lt;/b&gt;of the &lt;b&gt;extracts &lt;/b&gt;?&lt;/span&gt;" style="rounded=0;whiteSpace=wrap;html=1;shadow=1;" vertex="1" parent="1">
          <mxGeometry x="1194" y="705" width="380" height="40" as="geometry" />
        </mxCell>
        <mxCell id="vfXTkZvI6k-GlnQmIOGm-17" value="&lt;span style=&quot;font-size: 15px;&quot;&gt;Are there any data &lt;b&gt;volume limitations &lt;/b&gt;?&lt;/span&gt;" style="rounded=0;whiteSpace=wrap;html=1;shadow=1;" vertex="1" parent="1">
          <mxGeometry x="1194" y="755" width="380" height="40" as="geometry" />
        </mxCell>
        <mxCell id="vfXTkZvI6k-GlnQmIOGm-18" value="&lt;span style=&quot;font-size: 15px;&quot;&gt;How to &lt;b&gt;avoid impacting &lt;/b&gt;the source&lt;/span&gt;&lt;div&gt;&lt;span style=&quot;font-size: 15px;&quot;&gt;system&#39;s &lt;b&gt;performance &lt;/b&gt;?&lt;/span&gt;&lt;/div&gt;" style="rounded=0;whiteSpace=wrap;html=1;shadow=1;" vertex="1" parent="1">
          <mxGeometry x="1194" y="805" width="380" height="50" as="geometry" />
        </mxCell>
        <mxCell id="vfXTkZvI6k-GlnQmIOGm-19" value="&lt;span style=&quot;font-size: 15px;&quot;&gt;&lt;b&gt;authentication &lt;/b&gt;and &lt;b&gt;authorization&lt;/b&gt;&lt;/span&gt;&lt;div&gt;&lt;span style=&quot;font-size: 15px;&quot;&gt;(tokens, SSH keys, VPN, IP whitelisting, ...)&lt;/span&gt;&lt;/div&gt;" style="rounded=0;whiteSpace=wrap;html=1;shadow=1;" vertex="1" parent="1">
          <mxGeometry x="1194" y="865" width="380" height="50" as="geometry" />
        </mxCell>
        <mxCell id="vfXTkZvI6k-GlnQmIOGm-20" value="&lt;font style=&quot;font-size: 60px;&quot;&gt;\Rahul-404&lt;/font&gt;" style="rounded=0;whiteSpace=wrap;html=1;align=right;" vertex="1" parent="1">
          <mxGeometry x="1531" y="1359" width="390" height="120" as="geometry" />
        </mxCell>
        <mxCell id="vfXTkZvI6k-GlnQmIOGm-21" value="" style="dashed=0;outlineConnect=0;html=1;align=center;labelPosition=center;verticalLabelPosition=bottom;verticalAlign=top;shape=mxgraph.weblogos.github;strokeWidth=1;" vertex="1" parent="1">
          <mxGeometry x="1541" y="1381.5" width="70" height="75" as="geometry" />
        </mxCell>
        <mxCell id="vfXTkZvI6k-GlnQmIOGm-22" value="&lt;font style=&quot;font-size: 25px;&quot;&gt;&lt;b&gt;Source System Interview&lt;/b&gt;&lt;/font&gt;" style="rounded=0;whiteSpace=wrap;html=1;fillColor=light-dark(#FFC70F,#4285F4);shadow=1;" vertex="1" parent="1">
          <mxGeometry x="1002" y="261" width="332" height="64" as="geometry" />
        </mxCell>
      </root>
    </mxGraphModel>
  </diagram>
  <diagram id="Lgd_CmRxvyc6dIAwjbd8" name="data_layer_1">
    <mxGraphModel dx="3904" dy="2608" grid="0" gridSize="10" guides="1" tooltips="1" connect="1" arrows="1" fold="1" page="1" pageScale="1" pageWidth="2336" pageHeight="1654" math="0" shadow="0">
      <root>
        <mxCell id="0" />
        <mxCell id="1" parent="0" />
        <mxCell id="RG2xPDabLvLuSH5X_qUd-1" value="" style="rounded=0;whiteSpace=wrap;html=1;fillColor=#cce5ff;strokeColor=none;shadow=0;opacity=20;" vertex="1" parent="1">
          <mxGeometry x="9" y="1335" width="2321" height="120" as="geometry" />
        </mxCell>
        <mxCell id="RG2xPDabLvLuSH5X_qUd-2" value="" style="rounded=0;whiteSpace=wrap;html=1;fillColor=#cce5ff;strokeColor=none;shadow=0;opacity=20;" vertex="1" parent="1">
          <mxGeometry x="10" y="1195" width="2321" height="120" as="geometry" />
        </mxCell>
        <mxCell id="RG2xPDabLvLuSH5X_qUd-3" value="" style="rounded=0;whiteSpace=wrap;html=1;fillColor=#cce5ff;strokeColor=none;shadow=0;opacity=20;" vertex="1" parent="1">
          <mxGeometry x="10" y="715" width="2321" height="120" as="geometry" />
        </mxCell>
        <mxCell id="RG2xPDabLvLuSH5X_qUd-4" value="" style="rounded=0;whiteSpace=wrap;html=1;fillColor=#cce5ff;strokeColor=none;shadow=0;opacity=20;" vertex="1" parent="1">
          <mxGeometry x="9.500000000000002" y="575" width="2321" height="120" as="geometry" />
        </mxCell>
        <mxCell id="RG2xPDabLvLuSH5X_qUd-5" value="" style="rounded=0;whiteSpace=wrap;html=1;fillColor=#cce5ff;strokeColor=none;shadow=0;opacity=20;" vertex="1" parent="1">
          <mxGeometry x="9.120000000000001" y="435" width="2321" height="120" as="geometry" />
        </mxCell>
        <mxCell id="RG2xPDabLvLuSH5X_qUd-6" value="" style="rounded=0;whiteSpace=wrap;html=1;fillStyle=dots;fillColor=#f5f5f5;fontColor=#333333;strokeColor=#666666;" vertex="1" parent="1">
          <mxGeometry x="10" y="50" width="2320" height="1590" as="geometry" />
        </mxCell>
        <mxCell id="RG2xPDabLvLuSH5X_qUd-7" value="" style="rounded=0;whiteSpace=wrap;html=1;fillColor=#cce5ff;strokeColor=none;shadow=0;opacity=20;" vertex="1" parent="1">
          <mxGeometry x="10" y="855" width="2320" height="320" as="geometry" />
        </mxCell>
        <mxCell id="RG2xPDabLvLuSH5X_qUd-8" value="" style="rounded=0;whiteSpace=wrap;html=1;fillColor=#cce5ff;strokeColor=none;shadow=0;opacity=20;" vertex="1" parent="1">
          <mxGeometry x="10" y="296" width="2321" height="120" as="geometry" />
        </mxCell>
        <mxCell id="RG2xPDabLvLuSH5X_qUd-9" value="&lt;font style=&quot;font-size: 30px;&quot;&gt;&lt;b&gt;Definition&lt;/b&gt;&lt;/font&gt;" style="rounded=0;whiteSpace=wrap;html=1;fillColor=#dae8fc;strokeColor=#000000;shadow=1;" vertex="1" parent="1">
          <mxGeometry x="340" y="295" width="320" height="120" as="geometry" />
        </mxCell>
        <mxCell id="RG2xPDabLvLuSH5X_qUd-10" value="&lt;font style=&quot;font-size: 30px;&quot;&gt;&lt;b&gt;Objective&lt;/b&gt;&lt;/font&gt;" style="rounded=0;whiteSpace=wrap;html=1;fillColor=#dae8fc;strokeColor=#000000;shadow=1;" vertex="1" parent="1">
          <mxGeometry x="340" y="435" width="320" height="120" as="geometry" />
        </mxCell>
        <mxCell id="RG2xPDabLvLuSH5X_qUd-11" value="&lt;font style=&quot;font-size: 30px;&quot;&gt;&lt;b&gt;Object Type&lt;/b&gt;&lt;/font&gt;" style="rounded=0;whiteSpace=wrap;html=1;fillColor=#dae8fc;strokeColor=#000000;shadow=1;" vertex="1" parent="1">
          <mxGeometry x="340" y="575" width="320" height="120" as="geometry" />
        </mxCell>
        <mxCell id="RG2xPDabLvLuSH5X_qUd-12" value="&lt;font style=&quot;font-size: 30px;&quot;&gt;&lt;b&gt;Load Method&lt;/b&gt;&lt;/font&gt;" style="rounded=0;whiteSpace=wrap;html=1;fillColor=#dae8fc;strokeColor=#000000;shadow=1;" vertex="1" parent="1">
          <mxGeometry x="340" y="715" width="320" height="120" as="geometry" />
        </mxCell>
        <mxCell id="RG2xPDabLvLuSH5X_qUd-13" value="&lt;font style=&quot;font-size: 30px;&quot;&gt;&lt;b&gt;Data&lt;/b&gt;&lt;/font&gt;&lt;div&gt;&lt;font style=&quot;font-size: 30px;&quot;&gt;&lt;b&gt;Transformation&lt;/b&gt;&lt;/font&gt;&lt;/div&gt;" style="rounded=0;whiteSpace=wrap;html=1;fillColor=#dae8fc;strokeColor=#000000;shadow=1;" vertex="1" parent="1">
          <mxGeometry x="340" y="855" width="320" height="320" as="geometry" />
        </mxCell>
        <mxCell id="RG2xPDabLvLuSH5X_qUd-14" value="&lt;font style=&quot;font-size: 30px;&quot;&gt;&lt;b&gt;Data Modeling&lt;/b&gt;&lt;/font&gt;" style="rounded=0;whiteSpace=wrap;html=1;fillColor=#dae8fc;strokeColor=#000000;shadow=1;" vertex="1" parent="1">
          <mxGeometry x="340" y="1195" width="320" height="120" as="geometry" />
        </mxCell>
        <mxCell id="RG2xPDabLvLuSH5X_qUd-15" value="&lt;font style=&quot;font-size: 30px;&quot;&gt;&lt;b&gt;Target Audience&lt;/b&gt;&lt;/font&gt;" style="rounded=0;whiteSpace=wrap;html=1;fillColor=#dae8fc;strokeColor=#000000;shadow=1;" vertex="1" parent="1">
          <mxGeometry x="340" y="1335" width="320" height="120" as="geometry" />
        </mxCell>
        <mxCell id="RG2xPDabLvLuSH5X_qUd-16" value="&lt;font style=&quot;font-size: 30px;&quot;&gt;&lt;b&gt;Raw, unprocessed data&lt;/b&gt;&lt;/font&gt;&lt;div&gt;&lt;font style=&quot;font-size: 30px;&quot;&gt;&lt;b&gt;as-is from sources&lt;/b&gt;&lt;/font&gt;&lt;/div&gt;" style="rounded=0;whiteSpace=wrap;html=1;shadow=1;" vertex="1" parent="1">
          <mxGeometry x="700" y="295" width="400" height="120" as="geometry" />
        </mxCell>
        <mxCell id="RG2xPDabLvLuSH5X_qUd-17" value="&lt;span style=&quot;font-size: 30px;&quot;&gt;&lt;b&gt;Traceability &amp;amp; Debugging&lt;/b&gt;&lt;/span&gt;" style="rounded=0;whiteSpace=wrap;html=1;shadow=1;" vertex="1" parent="1">
          <mxGeometry x="700" y="435" width="400" height="120" as="geometry" />
        </mxCell>
        <mxCell id="RG2xPDabLvLuSH5X_qUd-18" value="&lt;span style=&quot;font-size: 30px;&quot;&gt;&lt;b&gt;Tables&lt;/b&gt;&lt;/span&gt;" style="rounded=0;whiteSpace=wrap;html=1;shadow=1;" vertex="1" parent="1">
          <mxGeometry x="700" y="575" width="400" height="120" as="geometry" />
        </mxCell>
        <mxCell id="RG2xPDabLvLuSH5X_qUd-19" value="&lt;span style=&quot;font-size: 30px;&quot;&gt;&lt;b&gt;Full Load&lt;/b&gt;&lt;/span&gt;&lt;div&gt;&lt;span style=&quot;font-size: 30px;&quot;&gt;(Truncate &amp;amp; Insert)&lt;/span&gt;&lt;/div&gt;" style="rounded=0;whiteSpace=wrap;html=1;shadow=1;" vertex="1" parent="1">
          <mxGeometry x="700" y="715" width="400" height="120" as="geometry" />
        </mxCell>
        <mxCell id="RG2xPDabLvLuSH5X_qUd-20" value="&lt;span style=&quot;font-size: 30px;&quot;&gt;&lt;b&gt;None (as-is)&lt;/b&gt;&lt;/span&gt;" style="rounded=0;whiteSpace=wrap;html=1;shadow=1;" vertex="1" parent="1">
          <mxGeometry x="700" y="855" width="400" height="320" as="geometry" />
        </mxCell>
        <mxCell id="RG2xPDabLvLuSH5X_qUd-21" value="&lt;b style=&quot;font-size: 30px;&quot;&gt;None (as-is)&lt;/b&gt;" style="rounded=0;whiteSpace=wrap;html=1;shadow=1;" vertex="1" parent="1">
          <mxGeometry x="700" y="1195" width="400" height="120" as="geometry" />
        </mxCell>
        <mxCell id="RG2xPDabLvLuSH5X_qUd-22" value="&lt;b style=&quot;background-color: transparent; color: light-dark(rgb(0, 0, 0), rgb(255, 255, 255)); font-size: 30px;&quot;&gt;&amp;nbsp;- Data Engineers&lt;/b&gt;" style="rounded=0;whiteSpace=wrap;html=1;shadow=1;align=left;" vertex="1" parent="1">
          <mxGeometry x="700" y="1335" width="400" height="120" as="geometry" />
        </mxCell>
        <mxCell id="RG2xPDabLvLuSH5X_qUd-23" value="&lt;b style=&quot;&quot;&gt;&lt;font style=&quot;font-size: 40px;&quot;&gt;Bronze Layer&lt;/font&gt;&lt;/b&gt;" style="rounded=0;whiteSpace=wrap;html=1;shadow=1;fillColor=#ffe6cc;strokeColor=#d79b00;shadowOpacity=100;shadowOffsetX=8;shadowBlur=0;shadowOffsetY=8;" vertex="1" parent="1">
          <mxGeometry x="780" y="160" width="310" height="100" as="geometry" />
        </mxCell>
        <mxCell id="RG2xPDabLvLuSH5X_qUd-24" value="" style="editableCssRules=.*;html=1;shape=image;verticalLabelPosition=bottom;labelBackgroundColor=#ffffff;verticalAlign=top;aspect=fixed;imageAspect=0;image=data:image/svg+xml,PHN2ZyB4bWxucz0iaHR0cDovL3d3dy53My5vcmcvMjAwMC9zdmciIHhtbG5zOnY9Imh0dHBzOi8vdmVjdGEuaW8vbmFubyIgd2lkdGg9IjE0LjY1OTk5OTg0NzQxMjExIiBoZWlnaHQ9IjIwIiB2aWV3Qm94PSIwIDAgMTQuNjU5OTk5ODQ3NDEyMTEgMjAiIHN0eWxlPSJjb2xvci1zY2hlbWU6IGxpZ2h0IGRhcms7Ij4mI3hhOwk8c3R5bGUgdHlwZT0idGV4dC9jc3MiPi5zdDAgeyBmaWxsOiBsaWdodC1kYXJrKHJnYigyNTUsIDE1MywgNTEpLCByZ2IoNjYsIDEzMywgMjQ0KSk7IH0gLnN0MSB7IGZpbGw6IGxpZ2h0LWRhcmsocmdiKDI1NSwgMTUzLCA1MSksIHJnYig2NiwgMTMzLCAyNDQpKTsgfSAuc3QyIHsgZmlsbDogbGlnaHQtZGFyayhyZ2IoMjU1LCAxNTMsIDUxKSwgcmdiKDY2LCAxMzMsIDI0NCkpOyB9IDwvc3R5bGU+JiN4YTsJPHN0eWxlPiYjeGE7CQkuRHtmaWxsLXJ1bGU6ZXZlbm9kZH0mI3hhOwk8L3N0eWxlPiYjeGE7CTxwYXRoIGQ9Ik03LjMzIDE1LjM1di0zLjAxTDAgOC40NHYzLjAxem0wIDQuNjV2LTMuMDFMMCAxMy4wOXYzLjAxeiIgY2xhc3M9InN0MiBEIi8+JiN4YTsJPHBhdGggZD0iTTE0LjY2IDguNDRsLTcuMzMgMy45djMuMDFsNy4zMy0zLjl6bTAgNC42NWwtNy4zMyAzLjlWMjBsNy4zMy0zLjl6IiBjbGFzcz0ic3QxIEQiLz4mI3hhOwk8cGF0aCBkPSJNNy4zMyAwdjMuMDFsNy4zMyAzLjlWMy45eiIgY2xhc3M9InN0MCBEIi8+JiN4YTsJPHBhdGggZD0iTTAgNi45MWw3LjMzLTMuOVYwTDAgMy45eiIgY2xhc3M9IkQgc3QxIi8+JiN4YTsJPHBhdGggZD0iTTcuMzMgMTAuNzlWNy43N0wwIDMuODd2My4wMnoiIGNsYXNzPSJEIHN0MiIvPiYjeGE7CTxwYXRoIGQ9Ik0xNC42NiAzLjg3bC03LjMzIDMuOXYzLjAybDcuMzMtMy45eiIgY2xhc3M9IkQgc3QxIi8+JiN4YTs8L3N2Zz4=;shadow=1;" vertex="1" parent="1">
          <mxGeometry x="700" y="165" width="71.25" height="95" as="geometry" />
        </mxCell>
        <mxCell id="RG2xPDabLvLuSH5X_qUd-25" value="&lt;span style=&quot;font-size: 30px;&quot;&gt;&lt;b&gt;Clean &amp;amp; standardized data&lt;/b&gt;&lt;/span&gt;" style="rounded=0;whiteSpace=wrap;html=1;shadow=1;" vertex="1" parent="1">
          <mxGeometry x="1140" y="295" width="400" height="120" as="geometry" />
        </mxCell>
        <mxCell id="RG2xPDabLvLuSH5X_qUd-26" value="&lt;span style=&quot;font-size: 30px;&quot;&gt;&lt;b&gt;(Intermediate Layer)&lt;/b&gt;&lt;/span&gt;&lt;div&gt;&lt;span style=&quot;font-size: 30px;&quot;&gt;&lt;b&gt;Prepare Data for Analysis&lt;/b&gt;&lt;/span&gt;&lt;/div&gt;" style="rounded=0;whiteSpace=wrap;html=1;shadow=1;" vertex="1" parent="1">
          <mxGeometry x="1140" y="435" width="400" height="120" as="geometry" />
        </mxCell>
        <mxCell id="RG2xPDabLvLuSH5X_qUd-27" value="&lt;span style=&quot;font-size: 30px;&quot;&gt;&lt;b&gt;Tables&lt;/b&gt;&lt;/span&gt;" style="rounded=0;whiteSpace=wrap;html=1;shadow=1;" vertex="1" parent="1">
          <mxGeometry x="1140" y="575" width="400" height="120" as="geometry" />
        </mxCell>
        <mxCell id="RG2xPDabLvLuSH5X_qUd-28" value="&lt;span style=&quot;font-size: 30px;&quot;&gt;&lt;b&gt;Full Load&lt;/b&gt;&lt;/span&gt;&lt;div&gt;&lt;span style=&quot;font-size: 30px;&quot;&gt;(Truncate &amp;amp; Insert)&lt;/span&gt;&lt;/div&gt;" style="rounded=0;whiteSpace=wrap;html=1;shadow=1;" vertex="1" parent="1">
          <mxGeometry x="1140" y="715" width="400" height="120" as="geometry" />
        </mxCell>
        <mxCell id="RG2xPDabLvLuSH5X_qUd-29" value="&lt;font style=&quot;font-size: 30px;&quot;&gt;&lt;b&gt;&amp;nbsp;&lt;/b&gt;-&lt;b&gt; &lt;/b&gt;Data&lt;b&gt; Cleaning&lt;/b&gt;&lt;/font&gt;&lt;div&gt;&lt;font style=&quot;font-size: 30px;&quot;&gt;&lt;b&gt;&amp;nbsp;&lt;/b&gt;-&lt;b&gt; &lt;/b&gt;Data&amp;nbsp;&lt;/font&gt;&lt;b style=&quot;background-color: transparent; color: light-dark(rgb(0, 0, 0), rgb(255, 255, 255)); font-size: 30px;&quot;&gt;Standardization&lt;/b&gt;&lt;/div&gt;&lt;div&gt;&lt;span style=&quot;font-size: 30px;&quot;&gt;&lt;b&gt;&amp;nbsp;&lt;/b&gt;-&lt;b&gt; Data Normalization&lt;/b&gt;&lt;/span&gt;&lt;/div&gt;&lt;div&gt;&lt;span style=&quot;font-size: 30px;&quot;&gt;&lt;b&gt;&amp;nbsp;&lt;/b&gt;-&lt;b&gt; Derived Columns&lt;/b&gt;&lt;/span&gt;&lt;/div&gt;&lt;div&gt;&lt;span style=&quot;font-size: 30px;&quot;&gt;&lt;b&gt;&amp;nbsp;&lt;/b&gt;-&lt;b&gt; Data Enrichment&lt;/b&gt;&lt;/span&gt;&lt;/div&gt;" style="rounded=0;whiteSpace=wrap;html=1;shadow=1;align=left;" vertex="1" parent="1">
          <mxGeometry x="1140" y="855" width="400" height="320" as="geometry" />
        </mxCell>
        <mxCell id="RG2xPDabLvLuSH5X_qUd-30" value="&lt;b style=&quot;font-size: 30px;&quot;&gt;None (as-is)&lt;/b&gt;" style="rounded=0;whiteSpace=wrap;html=1;shadow=1;" vertex="1" parent="1">
          <mxGeometry x="1140" y="1195" width="400" height="120" as="geometry" />
        </mxCell>
        <mxCell id="RG2xPDabLvLuSH5X_qUd-31" value="&lt;b style=&quot;background-color: transparent; color: light-dark(rgb(0, 0, 0), rgb(255, 255, 255)); font-size: 30px;&quot;&gt;&amp;nbsp;&lt;/b&gt;&lt;span style=&quot;background-color: transparent; color: light-dark(rgb(0, 0, 0), rgb(255, 255, 255)); font-size: 30px;&quot;&gt;-&lt;/span&gt;&lt;b style=&quot;background-color: transparent; color: light-dark(rgb(0, 0, 0), rgb(255, 255, 255)); font-size: 30px;&quot;&gt; Data Analysts&lt;/b&gt;&lt;div&gt;&lt;b style=&quot;background-color: transparent; color: light-dark(rgb(0, 0, 0), rgb(255, 255, 255)); font-size: 30px;&quot;&gt;&amp;nbsp;&lt;/b&gt;&lt;span style=&quot;background-color: transparent; color: light-dark(rgb(0, 0, 0), rgb(255, 255, 255)); font-size: 30px;&quot;&gt;-&lt;/span&gt;&lt;b style=&quot;background-color: transparent; color: light-dark(rgb(0, 0, 0), rgb(255, 255, 255)); font-size: 30px;&quot;&gt; Data Engineers&lt;/b&gt;&lt;/div&gt;" style="rounded=0;whiteSpace=wrap;html=1;shadow=1;align=left;" vertex="1" parent="1">
          <mxGeometry x="1140" y="1335" width="400" height="120" as="geometry" />
        </mxCell>
        <mxCell id="RG2xPDabLvLuSH5X_qUd-32" value="&lt;b style=&quot;&quot;&gt;&lt;font style=&quot;font-size: 40px;&quot;&gt;Silver Layer&lt;/font&gt;&lt;/b&gt;" style="rounded=0;whiteSpace=wrap;html=1;shadow=1;fillColor=#f5f5f5;strokeColor=#666666;shadowOpacity=100;shadowOffsetX=8;shadowBlur=0;shadowOffsetY=8;fontColor=#333333;" vertex="1" parent="1">
          <mxGeometry x="1220" y="160" width="310" height="100" as="geometry" />
        </mxCell>
        <mxCell id="RG2xPDabLvLuSH5X_qUd-33" value="" style="editableCssRules=.*;html=1;shape=image;verticalLabelPosition=bottom;labelBackgroundColor=#ffffff;verticalAlign=top;aspect=fixed;imageAspect=0;image=data:image/svg+xml,PHN2ZyB4bWxucz0iaHR0cDovL3d3dy53My5vcmcvMjAwMC9zdmciIHhtbG5zOnY9Imh0dHBzOi8vdmVjdGEuaW8vbmFubyIgd2lkdGg9IjE0LjY1OTk5OTg0NzQxMjExIiBoZWlnaHQ9IjIwIiB2aWV3Qm94PSIwIDAgMTQuNjU5OTk5ODQ3NDEyMTEgMjAiIHN0eWxlPSJjb2xvci1zY2hlbWU6IGxpZ2h0IGRhcms7Ij4mI3hhOwk8c3R5bGUgdHlwZT0idGV4dC9jc3MiPi5zdDAgeyBmaWxsOiBsaWdodC1kYXJrKHJnYigyMDQsIDIwNCwgMjA0KSwgcmdiKDY2LCAxMzMsIDI0NCkpOyB9IC5zdDEgeyBmaWxsOiBsaWdodC1kYXJrKHJnYigyMDQsIDIwNCwgMjA0KSwgcmdiKDY2LCAxMzMsIDI0NCkpOyB9IC5zdDIgeyBmaWxsOiBsaWdodC1kYXJrKHJnYigyMDQsIDIwNCwgMjA0KSwgcmdiKDY2LCAxMzMsIDI0NCkpOyB9IDwvc3R5bGU+JiN4YTsJPHN0eWxlPiYjeGE7CQkuRHtmaWxsLXJ1bGU6ZXZlbm9kZH0mI3hhOwk8L3N0eWxlPiYjeGE7CTxwYXRoIGQ9Ik03LjMzIDE1LjM1di0zLjAxTDAgOC40NHYzLjAxem0wIDQuNjV2LTMuMDFMMCAxMy4wOXYzLjAxeiIgY2xhc3M9InN0MiBEIi8+JiN4YTsJPHBhdGggZD0iTTE0LjY2IDguNDRsLTcuMzMgMy45djMuMDFsNy4zMy0zLjl6bTAgNC42NWwtNy4zMyAzLjlWMjBsNy4zMy0zLjl6IiBjbGFzcz0ic3QxIEQiLz4mI3hhOwk8cGF0aCBkPSJNNy4zMyAwdjMuMDFsNy4zMyAzLjlWMy45eiIgY2xhc3M9InN0MCBEIi8+JiN4YTsJPHBhdGggZD0iTTAgNi45MWw3LjMzLTMuOVYwTDAgMy45eiIgY2xhc3M9IkQgc3QxIi8+JiN4YTsJPHBhdGggZD0iTTcuMzMgMTAuNzlWNy43N0wwIDMuODd2My4wMnoiIGNsYXNzPSJEIHN0MiIvPiYjeGE7CTxwYXRoIGQ9Ik0xNC42NiAzLjg3bC03LjMzIDMuOXYzLjAybDcuMzMtMy45eiIgY2xhc3M9IkQgc3QxIi8+JiN4YTs8L3N2Zz4=;shadow=1;" vertex="1" parent="1">
          <mxGeometry x="1140" y="165" width="71.25" height="95" as="geometry" />
        </mxCell>
        <mxCell id="RG2xPDabLvLuSH5X_qUd-34" value="&lt;div&gt;&lt;font style=&quot;font-size: 30px;&quot;&gt;&lt;b&gt;Business-Ready data&lt;/b&gt;&lt;/font&gt;&lt;/div&gt;" style="rounded=0;whiteSpace=wrap;html=1;shadow=1;" vertex="1" parent="1">
          <mxGeometry x="1580" y="295" width="400" height="120" as="geometry" />
        </mxCell>
        <mxCell id="RG2xPDabLvLuSH5X_qUd-35" value="&lt;span style=&quot;font-size: 30px;&quot;&gt;&lt;b&gt;Provide data to be consumed&amp;nbsp;&lt;/b&gt;&lt;/span&gt;&lt;b style=&quot;font-size: 30px; background-color: transparent; color: light-dark(rgb(0, 0, 0), rgb(255, 255, 255));&quot;&gt;for reporting &amp;amp; Analytics&lt;/b&gt;&lt;b style=&quot;background-color: transparent; color: light-dark(rgb(0, 0, 0), rgb(255, 255, 255)); font-size: 30px;&quot;&gt;&amp;nbsp;&lt;/b&gt;" style="rounded=0;whiteSpace=wrap;html=1;shadow=1;" vertex="1" parent="1">
          <mxGeometry x="1580" y="435" width="400" height="120" as="geometry" />
        </mxCell>
        <mxCell id="RG2xPDabLvLuSH5X_qUd-36" value="&lt;span style=&quot;font-size: 30px;&quot;&gt;&lt;b&gt;Views&lt;/b&gt;&lt;/span&gt;" style="rounded=0;whiteSpace=wrap;html=1;shadow=1;" vertex="1" parent="1">
          <mxGeometry x="1580" y="575" width="400" height="120" as="geometry" />
        </mxCell>
        <mxCell id="RG2xPDabLvLuSH5X_qUd-37" value="&lt;span style=&quot;font-size: 30px;&quot;&gt;&lt;b&gt;None&lt;/b&gt;&lt;/span&gt;" style="rounded=0;whiteSpace=wrap;html=1;shadow=1;" vertex="1" parent="1">
          <mxGeometry x="1580" y="715" width="400" height="120" as="geometry" />
        </mxCell>
        <mxCell id="RG2xPDabLvLuSH5X_qUd-38" value="&lt;font style=&quot;font-size: 30px;&quot;&gt;&amp;nbsp;- Data &lt;b style=&quot;&quot;&gt;Integration&lt;/b&gt;&lt;/font&gt;&lt;div&gt;&lt;font style=&quot;font-size: 30px;&quot;&gt;&amp;nbsp;- Data &lt;b&gt;Aggrefation&lt;/b&gt;&lt;/font&gt;&lt;/div&gt;&lt;div&gt;&lt;font style=&quot;font-size: 30px;&quot;&gt;&amp;nbsp;- &lt;b style=&quot;&quot;&gt;Business Logic &amp;amp; Rules&lt;/b&gt;&lt;/font&gt;&lt;/div&gt;" style="rounded=0;whiteSpace=wrap;html=1;shadow=1;align=left;" vertex="1" parent="1">
          <mxGeometry x="1580" y="855" width="400" height="320" as="geometry" />
        </mxCell>
        <mxCell id="RG2xPDabLvLuSH5X_qUd-39" value="&lt;span style=&quot;font-size: 30px;&quot;&gt;&lt;b&gt;&amp;nbsp;&lt;/b&gt;-&lt;b&gt; Star Schema&lt;/b&gt;&lt;/span&gt;&lt;div&gt;&lt;span style=&quot;font-size: 30px;&quot;&gt;&lt;b&gt;&amp;nbsp;&lt;/b&gt;-&lt;b&gt; Aggregated Objects&lt;/b&gt;&lt;/span&gt;&lt;/div&gt;&lt;div&gt;&lt;span style=&quot;font-size: 30px;&quot;&gt;&lt;b&gt;&amp;nbsp;&lt;/b&gt;-&lt;b&gt; Flat Tables&lt;/b&gt;&lt;/span&gt;&lt;/div&gt;" style="rounded=0;whiteSpace=wrap;html=1;shadow=1;align=left;" vertex="1" parent="1">
          <mxGeometry x="1580" y="1195" width="400" height="120" as="geometry" />
        </mxCell>
        <mxCell id="RG2xPDabLvLuSH5X_qUd-40" value="&lt;span style=&quot;font-size: 30px;&quot;&gt;&lt;b&gt;&amp;nbsp;&lt;/b&gt;-&lt;b&gt; Data Analysts&lt;/b&gt;&lt;/span&gt;&lt;div&gt;&lt;span style=&quot;font-size: 30px;&quot;&gt;&lt;b&gt;&amp;nbsp;&lt;/b&gt;-&lt;b&gt; Business Users&lt;/b&gt;&lt;/span&gt;&lt;/div&gt;" style="rounded=0;whiteSpace=wrap;html=1;shadow=1;align=left;" vertex="1" parent="1">
          <mxGeometry x="1580" y="1335" width="400" height="120" as="geometry" />
        </mxCell>
        <mxCell id="RG2xPDabLvLuSH5X_qUd-41" value="&lt;b style=&quot;&quot;&gt;&lt;font style=&quot;font-size: 40px;&quot;&gt;Gold Layer&lt;/font&gt;&lt;/b&gt;" style="rounded=0;whiteSpace=wrap;html=1;shadow=1;fillColor=light-dark(#FFC70F,#4285F4);strokeColor=#d6b656;shadowOpacity=100;shadowOffsetX=8;shadowBlur=0;shadowOffsetY=8;" vertex="1" parent="1">
          <mxGeometry x="1660" y="160" width="310" height="100" as="geometry" />
        </mxCell>
        <mxCell id="RG2xPDabLvLuSH5X_qUd-42" value="" style="editableCssRules=.*;html=1;shape=image;verticalLabelPosition=bottom;labelBackgroundColor=#ffffff;verticalAlign=top;aspect=fixed;imageAspect=0;image=data:image/svg+xml,PHN2ZyB4bWxucz0iaHR0cDovL3d3dy53My5vcmcvMjAwMC9zdmciIHhtbG5zOnY9Imh0dHBzOi8vdmVjdGEuaW8vbmFubyIgd2lkdGg9IjE0LjY1OTk5OTg0NzQxMjExIiBoZWlnaHQ9IjIwIiB2aWV3Qm94PSIwIDAgMTQuNjU5OTk5ODQ3NDEyMTEgMjAiIHN0eWxlPSJjb2xvci1zY2hlbWU6IGxpZ2h0IGRhcms7Ij4mI3hhOwk8c3R5bGUgdHlwZT0idGV4dC9jc3MiPi5zdDAgeyBmaWxsOiBsaWdodC1kYXJrKHJnYigyNTUsIDE5OSwgMTUpLCByZ2IoNjYsIDEzMywgMjQ0KSk7IH0gLnN0MSB7IGZpbGw6IGxpZ2h0LWRhcmsocmdiKDI1NSwgMTk5LCAxNSksIHJnYig2NiwgMTMzLCAyNDQpKTsgfSAuc3QyIHsgZmlsbDogbGlnaHQtZGFyayhyZ2IoMjU1LCAxOTksIDE1KSwgcmdiKDY2LCAxMzMsIDI0NCkpOyB9IDwvc3R5bGU+JiN4YTsJPHN0eWxlPiYjeGE7CQkuRHtmaWxsLXJ1bGU6ZXZlbm9kZH0mI3hhOwk8L3N0eWxlPiYjeGE7CTxwYXRoIGQ9Ik03LjMzIDE1LjM1di0zLjAxTDAgOC40NHYzLjAxem0wIDQuNjV2LTMuMDFMMCAxMy4wOXYzLjAxeiIgY2xhc3M9InN0MiBEIi8+JiN4YTsJPHBhdGggZD0iTTE0LjY2IDguNDRsLTcuMzMgMy45djMuMDFsNy4zMy0zLjl6bTAgNC42NWwtNy4zMyAzLjlWMjBsNy4zMy0zLjl6IiBjbGFzcz0ic3QxIEQiLz4mI3hhOwk8cGF0aCBkPSJNNy4zMyAwdjMuMDFsNy4zMyAzLjlWMy45eiIgY2xhc3M9InN0MCBEIi8+JiN4YTsJPHBhdGggZD0iTTAgNi45MWw3LjMzLTMuOVYwTDAgMy45eiIgY2xhc3M9IkQgc3QxIi8+JiN4YTsJPHBhdGggZD0iTTcuMzMgMTAuNzlWNy43N0wwIDMuODd2My4wMnoiIGNsYXNzPSJEIHN0MiIvPiYjeGE7CTxwYXRoIGQ9Ik0xNC42NiAzLjg3bC03LjMzIDMuOXYzLjAybDcuMzMtMy45eiIgY2xhc3M9IkQgc3QxIi8+JiN4YTs8L3N2Zz4=;shadow=1;" vertex="1" parent="1">
          <mxGeometry x="1580" y="165" width="71.25" height="95" as="geometry" />
        </mxCell>
        <mxCell id="RG2xPDabLvLuSH5X_qUd-43" value="&lt;font style=&quot;font-size: 60px;&quot;&gt;\Rahul-404&lt;/font&gt;" style="rounded=0;whiteSpace=wrap;html=1;align=right;" vertex="1" parent="1">
          <mxGeometry x="1930" y="1510" width="390" height="120" as="geometry" />
        </mxCell>
        <mxCell id="RG2xPDabLvLuSH5X_qUd-44" value="" style="dashed=0;outlineConnect=0;html=1;align=center;labelPosition=center;verticalLabelPosition=bottom;verticalAlign=top;shape=mxgraph.weblogos.github;strokeWidth=1;" vertex="1" parent="1">
          <mxGeometry x="1940" y="1532.5" width="70" height="75" as="geometry" />
        </mxCell>
      </root>
    </mxGraphModel>
  </diagram>
</mxfile>
